<?xml version="1.0" encoding="utf-8"?>
<!-- Generator: Adobe Illustrator 21.1.0, SVG Export Plug-In . SVG Version: 6.00 Build 0)  -->
<svg version="1.1" id="Head_Logo" xmlns="http://www.w3.org/2000/svg" xmlns:xlink="http://www.w3.org/1999/xlink" x="0px" y="0px"
	 viewBox="0 0 99.4 99.4" style="enable-background:new 0 0 99.4 99.4;" xml:space="preserve">
<style type="text/css">
	.st0{fill:#FFFFFF;stroke:#010101;stroke-width:2;stroke-miterlimit:10;}
	.st1{fill:none;stroke:#010101;stroke-width:0.5;stroke-miterlimit:10;}
	.st2{fill:#6E6F72;stroke:#010101;stroke-width:0.25;stroke-miterlimit:10;}
	.st3{fill:#010101;stroke:#010101;stroke-width:0.25;stroke-miterlimit:10;}
	.st4{fill:#FFFFFF;}
	.st5{fill:#C7C8CA;stroke:#010101;stroke-width:0.5;stroke-miterlimit:10;}
	.st6{fill:#C7C8CA;}
	.st7{fill:#FBCCCD;stroke:#010101;stroke-width:0.5;stroke-miterlimit:10;}
	.st8{fill:none;stroke:#010101;stroke-width:0.75;stroke-miterlimit:10;}
	.st9{fill:none;stroke:#010101;stroke-miterlimit:10;}
	.st10{fill:#FFFFFF;stroke:#010101;stroke-width:0.5;stroke-miterlimit:10;}
	.st11{fill:#010101;stroke:#010101;stroke-width:0.5;stroke-miterlimit:10;}
</style>
<g>
	<circle class="st0" cx="49.7" cy="49.7" r="48.7"/>
</g>
<g>
	<path class="st1" d="M61.3,41.9c-2.5-3.2-7.5-1.7-9.7,0.3"/>
	<path class="st1" d="M52.4,42.2c0.2,0.6,2.4,1,3.8,0.7"/>
	<path class="st2" d="M57.2,41.9c0.3,0.4,1.4,0.5,1.7,0.3c0.3-0.2,1.3-1,1-1.3c-0.3-0.3-1.6-0.8-1.8-0.8c-0.4,0.1-0.7,0.4-0.9,0.8
		C57.1,41.2,57,41.6,57.2,41.9z"/>
	<path class="st3" d="M59.9,41.2c0-0.2-0.4-0.4-0.6-0.4c-0.2-0.1-0.6,0.2-0.7,0.6c-0.1,0.4-0.1,0.6,0,0.7c0.1,0.2,0.9-0.3,0.9-0.3
		C59.5,41.8,59.9,41.2,59.9,41.2z"/>
	<ellipse transform="matrix(0.7793 -0.6266 0.6266 0.7793 -12.9492 45.3788)" class="st4" cx="58" cy="41.1" rx="0.1" ry="0.4"/>
	<path class="st3" d="M50.8,32.3c0.1,0.6,0.8,3.3,0.9,3.4c0.1,0.1,1.3-0.5,1.4-0.5c0.2,0,1.1-1.7,1.3-1.9c0.3-0.3,5.1-1.6,5.9-1.2
		c0.8,0.4,3.4,2.3,3.5,2.9c0.1-0.7-3.2-3.6-3.2-3.6s-1.3-1.1-1.6-1.1c-0.2,0-4.2,0.7-4.6,0.7c-0.3,0-3,0.3-3.2,0.5
		C51.1,31.6,50.8,32.3,50.8,32.3z"/>
	<path class="st3" d="M44.8,32.7c0,0.2-0.5,2.8-0.6,2.9c-0.1,0.1-0.8,0.6-1,0.6c-0.2,0-0.6-0.1-0.7-0.2c-0.1-0.1-1.5-1.7-1.8-1.8
		c-0.4-0.1-3.8-0.6-4.7-0.3c-0.9,0.3-4.6,3.4-4.6,4c0-0.4,1.5-3.2,1.8-3.4c0.3-0.2,2.6-2.2,3.4-2.2c0.8,0,5.2-0.9,5.4-0.8
		c0.2,0.1,1.7,0.2,1.9,0.3C44.1,31.8,44.8,32.7,44.8,32.7z"/>
	<path class="st5" d="M39.1,57c0.2,1.8,2.7,2.5,4.4,0.9c1.4,0.5,3.9,1.6,4.3,1.6c0.5,0,4.4-2.4,5.1-2.5c0.7-0.1,3,2.1,4.5-1.5
		c-0.7,2.4-2.6,2.9-5.1,4.5c-1.9,1.1-2.1,2.2-3.9,2.7c-1.6,0.1-3.7-1.4-4.3-1.8c-0.5-0.4-3.4-0.5-3.7-0.8C39.4,59.6,39.1,57,39.1,57
		z"/>
	<path class="st6" d="M54,63.4c-0.5,1.2-0.3,2.7-0.1,3.4c0.2,0.7,0.4,0.5,0,2.8c-0.1,0.5-1.4,2.4-4.8,2.4c-3.2,0-4.9-1.5-5.5-3
		c-1.1-1.6-0.9-5-0.9-6.8c0,0,0.9,0.2,1.1,0.6c0.2,0.4,1.4,3.6,1.8,4.2c0.4,0.5,0.9,1.4,2.6,1.4c1.8-0.1,3.7-1.8,3.7-2.5
		c0-0.6,1.3-2,1.7-2.3C54,63.4,54,63.4,54,63.4z"/>
	<path class="st1" d="M54,63.4c-0.5,1.2-0.3,2.7-0.1,3.4c0.2,0.7,0.7,1.3,0,2.8c-0.2,0.5-1.7,2.1-5,2.1c-3.2,0-4.6-1.2-5.3-2.8
		c-1.1-1.6-0.9-5-0.9-6.8"/>
	<path class="st1" d="M45.2,66.5c-0.2-0.6-2.6-5.6-4.3-6.2"/>
	<path class="st1" d="M54.3,59.3c-0.4,0.8-2.2,4.9-2.1,6.1"/>
	<path class="st1" d="M51.7,66.4c-0.4,0.7-3.2,2.9-5.7,1.1"/>
	<path class="st1" d="M52.3,63.4c-0.1,0-0.5,0.2-0.6,0.3c-0.1,0.1-0.7,2-2.8,2.2c-2.1,0.2-2.2,0.1-2.8-0.2c-0.6-0.3-1-1.1-1.3-1"/>
	<path class="st7" d="M43,60.5c0,0.3,0.2,2.5,0.2,2.9"/>
	<path class="st1" d="M45.2,61.8c-0.6,0.6,0,3.3-0.1,2.9"/>
	<path class="st1" d="M48.3,62.6c0.1,0.3,0.5,2.9,0.5,2.9"/>
	<path class="st1" d="M51.8,60.3c0.1,0.5,0.2,2.9-0.2,3.4"/>
	<path class="st1" d="M44.6,46.6c-0.6,0.8-2.6,3.8-1.7,5.1c1,0.9,2.3,1,2.3,1"/>
	<path class="st1" d="M51.4,46.6c0.6,0.5,2.6,3.2,2.4,4c-0.2,0.9-3.3,2.3-3.8,2.6"/>
	<path class="st8" d="M32.4,41.8c0,0,0,1.8,0.6,2.4c0.6,0.6,5.9,3.7,12.7-0.3c1.7-1,1.6-2.7,1.6-2.7s-0.3-4-7.4-3.2
		C33.6,39.6,32.4,41.8,32.4,41.8z"/>
	<path class="st9" d="M47.3,41.3c0.8-0.4,1.6-0.7,2.3,0"/>
	<path class="st8" d="M49.7,39.9c-0.2,0.4-0.3,3.8,0.6,4c1.5,1,10.3,2.1,12.8-1.7c0.4-1.8,0.2-2.5,0-2.8c-0.2-0.3-1.2-2.6-6.7-2.5
		C52.6,37.5,49.9,39.6,49.7,39.9z"/>
	<path class="st10" d="M28,51.9c0-0.8,1.5-5.6,1.7-6.1c0.2-0.5,0.7-2.9,0.6-4.4c0-1.2-0.3-3.8-2.3-4.5c-2-0.7-1.7,0-1.7,0
		s-1.3,2-1.3,3.6c0,1.6,1.4,2.4,1.5,2.9c0.1,0.5,0.3,4-0.1,4.6C26,48.6,27,53.2,28,53.7"/>
	<path class="st10" d="M67.5,51.8c0-1.2,0-4.2-1.6-6.9c-0.7-1.2,0.8-9.3,0.8-9.3s0.4-1.1,1.5-0.8c1.4,0.4,1.8,2.6,0.5,5.6
		c0.2,2.3,0.8,4.2,0.7,5.5c-0.1,1.3-1.2,4.7-1.8,5.3"/>
	<path class="st3" d="M28,50.8c0.1-2.1,2.8-7.1,2.8-10.2c0,0-2.1-7.4,0-11.2c2.1-3.8,3.8-5.5,5.1-7.5c1.3-2,1.2-3.9,2.1-4.9
		c0.9-1,6.5-4.9,10.9-4.6h-0.3c4.4-0.3,9.7,1.7,10.6,2.7c0.9,1,2,2.4,3.3,4.4c1.3,2,2.4,0.3,3,4.6c0.7,4.7-1.3,14.9-1.3,14.9
		c0.3,3,0.8,0.7,1.1,2.8c0,0,0.7-2.8,1.4-6.6c0.7-3.8,1.9-1.8,1.3-7.9c-0.6-6.1-2.3-10.9-2.7-11.9c-0.4-1-5.5-8.7-15.3-9.2
		c-9.8-0.5-17.2,11.1-17.9,12.9c-0.7,1.8-3.3,5.1-3.7,6.9c-0.4,1.8-0.7,6.2,0,8.4c0.7,2.2,2.3,6.2,2.3,6.2"/>
	<path class="st3" d="M67.5,49.2c0.3,2.1,0,5.2-2.6,8c-1.5,2.9-2.9,12.7-6.6,16.7c-1.5,1.5-2.6,0.7-3,1.6c-1.7,1.7,0,5.4-5.6,7.3
		h-0.3c-5.7-1.4-4.8-5.2-6.7-6.7c-0.5-0.8-1.5,0-3.2-1.3c-4.1-3.6-6.4-13.2-8.2-16c-2.9-2.6-3.5-5.6-3.4-7.7c0,0-0.1,4.6,0.5,6.7
		c0.6,2.1-1.6,6.8-0.9,9.5c0.3,2.9,2.6,6.8,5.3,9.4c2.7,2.6,7.6,5.7,8.2,6.5c2.7,1.2,2.9,6.4,8.6,6.4c5.7,0,6.4-3.9,8.4-7.2
		c2-3.3,9-9.2,10-13.2c1-4,0.7-9.3-0.5-12.8C67.5,52.5,67.5,49.2,67.5,49.2z"/>
	<path class="st3" d="M43.2,53.4c0.3-0.1,1.6-0.1,2,0.1c0.4,0.2,1.4,1.4,1.9,1.4c0.5,0,2.4-0.9,2.7-0.9c0.3,0,2.6-1,3.3-1.3
		c1-0.1,2.8,1.3,3.3,1.3c0.5,0,2.7,1.4,2.7,1.5c0,0.1,0.3,2.7-0.3,3c-0.6,0.3-1.5-2-1.5-2l-0.1-0.8c0,0-0.9,1.5-1.7,1.8
		c-0.8,0.3-2-0.4-2.6-0.5c-0.6-0.1-4.8,2.6-5.2,2.5c-0.4-0.1-4-1.6-4.3-1.6c-0.3,0-1.3,1.2-2.7,0.8c-1.4-0.4-1.7-1.6-1.7-1.8
		c0-0.2,0.3,2.3,0,3c-0.2,0.4,0.2,0.6,0,1.1c-0.2,0.4-1.3,0.6-1.4,0.2c-0.2-0.4-0.8-1.5-0.8-2.2c0-0.6,1.3-1.9,1.4-2
		c0.1-0.1,3.1-3,3.3-3.1C41.8,53.8,43.2,53.4,43.2,53.4z"/>
	<path class="st11" d="M46.7,72.3c-0.3,0.2-0.9,1.3-1,1.6c-0.1,0.3,0.1,0.3,0.5,0.4c0.4,0.1,0.3-0.1,0.5,0.3
		c0.2,0.4,0.8,0.8,0.9,0.9c0.1,0,1-0.3,1.2-0.3c0.2,0,0.3,0.2,0.6,0.3c0.3,0.1,0.4-0.3,0.6-0.4c0.2-0.1,0.2-0.1,0.6-0.1
		c0.5,0,0.7,0.1,0.8-0.1c0.1-0.2,0.2-0.2,0.2-0.7c0-0.5-0.1-0.4,0.3-0.6c0.4-0.2,0.5,0,0.7-0.3c0.1-0.3,0.6-0.1,0.1-0.4
		c-0.4-0.3-1-0.7-1.3-0.8c-0.3-0.1-1.9,0.3-2.1,0.4c-0.2,0.1-2.4-0.4-2.4-0.4L46.7,72.3z"/>
</g>
<g>
	<path class="st1" d="M44.4,42.5c-2.5-3.2-7.5-1.7-9.7,0.3"/>
	<path class="st1" d="M35.5,42.8c0.2,0.6,2.4,1,3.8,0.7"/>
	<path class="st2" d="M40.3,42.5c0.3,0.4,1.4,0.5,1.7,0.3c0.3-0.2,1.3-1,1-1.3c-0.3-0.3-1.6-0.8-1.8-0.8c-0.4,0.1-0.7,0.4-0.9,0.8
		C40.2,41.8,40.1,42.2,40.3,42.5z"/>
	<path class="st3" d="M43,41.8c0-0.2-0.4-0.4-0.6-0.4c-0.2-0.1-0.6,0.2-0.7,0.6c-0.1,0.4-0.1,0.6,0,0.7c0.1,0.2,0.9-0.3,0.9-0.3
		C42.7,42.4,43,41.8,43,41.8z"/>
	<ellipse transform="matrix(0.7795 -0.6264 0.6264 0.7795 -17.0538 34.91)" class="st4" cx="41.1" cy="41.7" rx="0.1" ry="0.4"/>
</g>
<path class="st1" d="M44.1,51.5c0.2-0.2,0.6-0.5,0.9-0.4c0.2,0.1,2,2.6,2.5,2.6c1,0,2.9-3.1,3.2-3.2c0.3-0.2,0.9-0.1,1.2,0.2"/>
<path class="st1" d="M45.7,49.7c1,0.9,2.5,1.1,4,0"/>
<path class="st1" d="M48.6,12.8c4.4-0.3,9.7,1.7,10.6,2.7c0.9,1,2,2.4,3.3,4.4c1.3,2,2.4,0.3,3,4.6c0.7,4.7-1.3,14.9-1.3,14.9
	c0.3,3,3,7.8,3.3,9.8c0.3,2.1,0,5.2-2.6,8c-1.5,2.9-2.9,12.7-6.6,16.7c-1.5,1.5-2.6,0.7-3,1.6c-1.7,1.7,0,5.4-5.6,7.3h-0.3
	c-5.7-1.4-4.8-5.2-6.7-6.7c-0.5-0.8-1.5,0-3.2-1.3c-4.1-3.6-6.4-13.2-8.2-16c-2.9-2.6-3.5-5.6-3.4-7.7C28.1,49,30.8,44,30.8,41
	c0,0-2.1-7.4,0-11.2c2.1-3.8,3.8-5.5,5.1-7.5c1.3-2,1.2-3.9,2.1-4.9c0.9-1,6.5-4.9,10.9-4.6"/>
</svg>
