<?xml version="1.0" encoding="UTF-8" standalone="no"?>
<svg
   xmlns:dc="http://purl.org/dc/elements/1.1/"
   xmlns:cc="http://creativecommons.org/ns#"
   xmlns:rdf="http://www.w3.org/1999/02/22-rdf-syntax-ns#"
   xmlns:svg="http://www.w3.org/2000/svg"
   xmlns="http://www.w3.org/2000/svg"
   xmlns:sodipodi="http://sodipodi.sourceforge.net/DTD/sodipodi-0.dtd"
   xmlns:inkscape="http://www.inkscape.org/namespaces/inkscape"
   width="1e3"
   height="1348.6"
   version="1.1"
   viewBox="0 0 264.58 356.83"
   id="svg170"
   sodipodi:docname="ScienceSteffyWSign.svg"
   inkscape:version="0.92.3 (2405546, 2018-03-11)">
  <metadata
     id="metadata176">
    <rdf:RDF>
      <cc:Work
         rdf:about="">
        <dc:format>image/svg+xml</dc:format>
        <dc:type
           rdf:resource="http://purl.org/dc/dcmitype/StillImage" />
      </cc:Work>
    </rdf:RDF>
  </metadata>
  <defs
     id="defs174" />
  <sodipodi:namedview
     pagecolor="#ffffff"
     bordercolor="#666666"
     borderopacity="1"
     objecttolerance="10"
     gridtolerance="10"
     guidetolerance="10"
     inkscape:pageopacity="0"
     inkscape:pageshadow="2"
     inkscape:window-width="2560"
     inkscape:window-height="1377"
     id="namedview172"
     showgrid="false"
     inkscape:zoom="0.24748213"
     inkscape:cx="499.16624"
     inkscape:cy="409.85366"
     inkscape:window-x="-8"
     inkscape:window-y="32"
     inkscape:window-maximized="1"
     inkscape:current-layer="svg170" />
  <g
     style="display:inline"
     id="g4909"
     transform="matrix(0.58625325,0,0,0.58625325,397.52598,400.43889)">
    <path
       inkscape:connector-curvature="0"
       id="path4897"
       d="m -443.91917,-651.66952 c -9.58776,0 -17.30642,11.3086 -17.30642,25.35556 v 33.56901 h -34.6129 c -9.58776,0 -17.30642,7.71868 -17.30642,17.30644 v 59.33643 c 0,9.58775 7.71866,17.30644 17.30642,17.30644 h 34.6129 v 393.03181 h 34.61287 v -393.03181 h 77.4392 6.62078 c 0.79944,0 1.58535,-0.0552 2.3554,-0.15917 12.2742,-0.39017 34.13336,-1.73659 46.07523,-6.37842 21.14663,-8.21961 55.17642,-18.08133 55.05143,-40.95202 -0.12396,-22.6876 -33.9048,-31.8053 -55.05143,-40.02495 -17.21324,-6.69074 -55.05141,-6.53758 -55.05141,-6.53758 v 0.10283 h -77.4392 v -33.56901 c 0,-14.04696 -7.71866,-25.35556 -17.30645,-25.35556 z"
       style="opacity:1;vector-effect:none;fill:#a05a2c;fill-opacity:1;stroke:#ffffff;stroke-width:16;stroke-linecap:round;stroke-linejoin:round;stroke-miterlimit:4;stroke-dasharray:none;stroke-dashoffset:0;stroke-opacity:1;paint-order:stroke markers fill" />
    <path
       inkscape:connector-curvature="0"
       id="rect1841"
       d="m -443.91921,-651.6693 c -9.58777,0 -17.30644,11.30849 -17.30644,25.35545 v 520.55003 h 34.61288 v -520.55003 c 0,-14.04696 -7.71867,-25.35545 -17.30644,-25.35545 z"
       style="opacity:1;vector-effect:none;fill:#b86733;fill-opacity:1;stroke:#8b4513;stroke-width:6;stroke-linecap:round;stroke-linejoin:round;stroke-miterlimit:4;stroke-dasharray:none;stroke-dashoffset:0;stroke-opacity:1;paint-order:stroke markers fill" />
    <path
       sodipodi:nodetypes="ccsssscsccssc"
       inkscape:connector-curvature="0"
       id="path1845"
       d="m -349.17355,-592.84797 v 0.10281 h -146.66503 c -9.58777,0 -17.30644,7.71868 -17.30644,17.30644 v 59.33653 c 0,9.58775 7.71867,17.30642 17.30644,17.30642 h 146.66503 6.62062 c 0.79943,0 1.58563,-0.0549 2.35568,-0.15883 12.2742,-0.39017 34.13316,-1.73686 46.07504,-6.37869 21.14662,-8.21961 55.17658,-18.08139 55.05159,-40.95208 -0.12395,-22.6876 -33.90497,-31.80543 -55.05159,-40.02508 -17.21325,-6.69074 -55.05134,-6.53752 -55.05134,-6.53752 z"
       style="opacity:1;vector-effect:none;fill:#b86733;fill-opacity:1;stroke:#8b4412;stroke-width:6;stroke-linecap:round;stroke-linejoin:round;stroke-miterlimit:4;stroke-dasharray:none;stroke-dashoffset:0;stroke-opacity:1;paint-order:stroke markers fill" />
    <g
       aria-label="Data Science"
       style="font-style:normal;font-variant:normal;font-weight:normal;font-stretch:normal;font-size:44.52335358px;line-height:1.25;font-family:'Berlin Sans FB';-inkscape-font-specification:'Berlin Sans FB';letter-spacing:0px;word-spacing:0px;fill:#ffffff;fill-opacity:1;stroke:#8b4412;stroke-width:4.23333311;stroke-miterlimit:4;stroke-dasharray:none;stroke-opacity:1;paint-order:markers stroke fill"
       id="text1856">
      <path
         inkscape:connector-curvature="0"
         d="m -490.05741,-563.97482 q 0.0435,-0.26088 0.15218,-0.36958 0.1087,-0.1087 2.19573,-0.30436 2.08703,-0.19566 5.7176,-0.19566 3.6523,0 5.6089,2.10877 1.95659,2.08704 1.95659,5.73934 0,6.89156 -1.54353,15.87014 -0.82612,4.76105 -2.67401,7.08722 -1.69572,2.13051 -5.30454,2.80445 -1.6305,0.28262 -3.97841,0.36957 l -5.41324,0.19566 q -0.47828,-0.0217 -0.47828,-0.41305 z m 4.97844,4.1958 -2.65227,23.67477 q 3.23925,-0.28261 4.47842,-1.26091 1.26092,-0.9783 1.76094,-3.71753 0.50001,-2.73923 0.97829,-7.47853 0.50002,-4.7393 0.50002,-7.76115 0,-1.78267 -0.8696,-2.65227 -0.86959,-0.8696 -2.36965,-0.8696 -1.47831,0 -1.82615,0.0652 z"
         style="font-style:normal;font-variant:normal;font-weight:normal;font-stretch:normal;font-family:'Contrail One';-inkscape-font-specification:'Contrail One';fill:#ffffff;stroke:#8b4412;stroke-width:4.23333311;stroke-miterlimit:4;stroke-dasharray:none;stroke-opacity:1;paint-order:markers stroke fill"
         id="path75" />
      <path
         inkscape:connector-curvature="0"
         d="m -451.57776,-556.47455 -2.82619,25.06613 q -0.0652,0.56523 -0.56523,0.58697 l -4.39147,0.15218 q -0.45653,-0.0435 -0.45653,-0.41305 l 0.41305,-2.95663 q -1.00003,1.69571 -2.19573,2.60879 -1.17395,0.91307 -2.65227,0.91307 -1.47831,0 -2.52183,-0.50001 -1.04351,-0.52176 -1.71745,-1.34788 -0.6522,-0.84786 -1.06526,-2.02181 -0.7609,-2.08703 -0.7609,-5.69586 0,-3.63057 0.47828,-6.1524 0.50002,-2.52183 0.8696,-3.82622 0.36958,-1.32614 0.9783,-2.71749 0.63045,-1.39136 1.41309,-2.32617 1.78267,-2.13052 4.50016,-2.13052 2.02182,0 3.08707,0.9783 1.06526,0.95656 1.78268,2.84793 l 0.26087,-2.95663 q 0.0435,-0.47828 0.5435,-0.52176 l 4.26103,-0.15218 q 0.56523,0.0435 0.56523,0.56524 z m -13.26135,15.76144 q 0,5.19584 2.78271,5.19584 1.21744,0 1.97834,-1.10873 0.76089,-1.13048 1.30439,-4.50017 0.56524,-3.36968 0.56524,-4.91322 0,-1.54353 -0.0217,-1.95659 -0.0217,-0.41306 -0.087,-1.087 -0.0652,-0.69567 -0.23914,-1.15221 -0.17392,-0.47828 -0.45654,-0.95656 -0.56524,-0.93482 -1.82615,-0.93482 -1.26092,0 -2.00007,1.13048 -0.73916,1.10874 -1.15222,2.97837 -0.84786,4.00014 -0.84786,7.30461 z"
         style="font-style:normal;font-variant:normal;font-weight:normal;font-stretch:normal;font-family:'Contrail One';-inkscape-font-specification:'Contrail One';fill:#ffffff;stroke:#8b4412;stroke-width:4.23333311;stroke-miterlimit:4;stroke-dasharray:none;stroke-opacity:1;paint-order:markers stroke fill"
         id="path77" />
      <path
         inkscape:connector-curvature="0"
         d="m -444.4688,-556.95283 q 0.50002,-4.78278 0.65219,-4.93496 0.15218,-0.17392 0.45654,-0.19566 l 4.15233,-0.15218 q 0.58698,0.0435 0.58698,0.5435 -0.41306,2.41313 -0.69568,4.6306 l 5.0654,-0.17392 q 0.52176,0.0217 0.52176,0.56524 l -0.60872,3.45665 q -0.087,0.52176 -0.5435,0.5435 l -4.97844,0.19566 q -1.47831,13.30483 -1.47831,14.67444 0,2.54357 2.17399,2.54357 1.10873,0 2.15225,-0.34784 1.04352,-0.34784 1.30439,-0.34784 0.45654,0 0.45654,0.56524 l -0.45654,3.80449 q -0.0435,0.3261 -0.17391,0.47828 -0.1087,0.15218 -1.06526,0.36957 -0.93482,0.2174 -3.21751,0.2174 -3.34795,0 -4.9567,-1.54353 -1.60875,-1.56527 -1.60875,-4.65234 0,-3.08707 1.71745,-15.69622 l -2.13051,0.087 q -0.5435,-0.0217 -0.5435,-0.5435 l 0.58698,-3.50013 q 0.0652,-0.50002 0.56523,-0.52176 z"
         style="font-style:normal;font-variant:normal;font-weight:normal;font-stretch:normal;font-family:'Contrail One';-inkscape-font-specification:'Contrail One';fill:#ffffff;stroke:#8b4412;stroke-width:4.23333311;stroke-miterlimit:4;stroke-dasharray:none;stroke-opacity:1;paint-order:markers stroke fill"
         id="path79" />
      <path
         inkscape:connector-curvature="0"
         d="m -412.4459,-556.47455 -2.82619,25.06613 q -0.0652,0.56523 -0.56524,0.58697 l -4.39146,0.15218 q -0.45654,-0.0435 -0.45654,-0.41305 l 0.41306,-2.95663 q -1.00004,1.69571 -2.19574,2.60879 -1.17395,0.91307 -2.65227,0.91307 -1.47831,0 -2.52183,-0.50001 -1.04351,-0.52176 -1.71745,-1.34788 -0.6522,-0.84786 -1.06526,-2.02181 -0.76089,-2.08703 -0.76089,-5.69586 0,-3.63057 0.47828,-6.1524 0.50001,-2.52183 0.86959,-3.82622 0.36958,-1.32614 0.9783,-2.71749 0.63046,-1.39136 1.41309,-2.32617 1.78268,-2.13052 4.50017,-2.13052 2.02181,0 3.08707,0.9783 1.06525,0.95656 1.78267,2.84793 l 0.26088,-2.95663 q 0.0435,-0.47828 0.5435,-0.52176 l 4.26102,-0.15218 q 0.56524,0.0435 0.56524,0.56524 z m -13.26135,15.76144 q 0,5.19584 2.78271,5.19584 1.21743,0 1.97833,-1.10873 0.7609,-1.13048 1.30439,-4.50017 0.56524,-3.36968 0.56524,-4.91322 0,-1.54353 -0.0217,-1.95659 -0.0217,-0.41306 -0.087,-1.087 -0.0652,-0.69567 -0.23914,-1.15221 -0.17392,-0.47828 -0.45653,-0.95656 -0.56524,-0.93482 -1.82616,-0.93482 -1.26091,0 -2.00007,1.13048 -0.73916,1.10874 -1.15222,2.97837 -0.84785,4.00014 -0.84785,7.30461 z"
         style="font-style:normal;font-variant:normal;font-weight:normal;font-stretch:normal;font-family:'Contrail One';-inkscape-font-specification:'Contrail One';fill:#ffffff;stroke:#8b4412;stroke-width:4.23333311;stroke-miterlimit:4;stroke-dasharray:none;stroke-opacity:1;paint-order:markers stroke fill"
         id="path81" />
      <path
         inkscape:connector-curvature="0"
         d="m -400.03241,-530.43013 q -0.5435,0 -0.5435,-0.52175 l 0.5435,-4.54365 q 0.087,-0.47828 0.56523,-0.52176 3.39143,-0.34783 4.47843,-1.06525 1.08699,-0.73916 1.08699,-2.91315 0,-2.17399 -1.10873,-5.65238 -1.10874,-3.50013 -1.43484,-4.65234 -1.04351,-3.69579 -1.04351,-6.0437 0,-2.36965 0.76089,-4.04362 0.7609,-1.67398 2.174,-2.67401 2.73923,-1.91312 7.36983,-1.91312 0.58698,0 0.58698,0.5435 l -0.58698,4.50016 q -0.087,0.5435 -0.5435,0.58698 -4.21754,0.28262 -4.21754,2.50009 0,2.04355 1.78267,8.04377 1.80441,5.97848 1.80441,8.56553 0,9.8047 -11.67433,9.8047 z"
         style="font-style:normal;font-variant:normal;font-weight:normal;font-stretch:normal;font-family:'Contrail One';-inkscape-font-specification:'Contrail One';fill:#ffffff;stroke:#8b4412;stroke-width:4.23333311;stroke-miterlimit:4;stroke-dasharray:none;stroke-opacity:1;paint-order:markers stroke fill"
         id="path83" />
      <path
         inkscape:connector-curvature="0"
         d="m -368.48778,-556.56151 q 0.47827,0.17392 0.47827,0.82612 l -0.50001,3.93492 q -0.0435,0.4348 -0.60872,0.4348 -0.5435,0 -1.04352,-0.2174 -2.10877,-0.93481 -3.50013,-0.93481 -1.39135,0 -2.21747,1.15221 -0.82611,1.15222 -1.32613,3.30447 -0.93482,4.02188 -0.93482,7.34809 0,5.34802 2.76097,5.34802 2.00007,0 3.23925,-0.50002 1.23917,-0.52175 1.60875,-0.52175 0.7609,0 0.7609,0.65219 l -0.45654,3.82623 q -0.0435,0.39132 -0.17392,0.47828 -0.1087,0.0652 -0.30436,0.15218 -2.63053,0.76089 -4.9567,0.76089 -2.30443,0 -3.6523,-0.58697 -1.32614,-0.58698 -2.10878,-1.50006 -0.78263,-0.93482 -1.26091,-2.23921 -0.84786,-2.23921 -0.84786,-5.5002 0,-3.28273 0.41306,-5.69586 0.4348,-2.43487 0.89134,-3.95666 0.47827,-1.5218 1.26091,-2.91315 0.78264,-1.4131 1.82616,-2.32617 2.28269,-2.00008 6.04369,-2.00008 2.52183,0 4.60887,0.67394 z"
         style="font-style:normal;font-variant:normal;font-weight:normal;font-stretch:normal;font-family:'Contrail One';-inkscape-font-specification:'Contrail One';fill:#ffffff;stroke:#8b4412;stroke-width:4.23333311;stroke-miterlimit:4;stroke-dasharray:none;stroke-opacity:1;paint-order:markers stroke fill"
         id="path85" />
      <path
         inkscape:connector-curvature="0"
         d="m -358.94396,-559.40944 q -1.34788,0 -2.15225,-0.84786 -0.80438,-0.84785 -0.80438,-2.17399 0,-1.34787 1.06525,-2.39139 1.087,-1.06525 2.43488,-1.06525 1.34787,0 2.17399,0.84785 0.84785,0.84786 0.84785,2.19573 0,1.32614 -1.10873,2.3914 -1.10874,1.04351 -2.45661,1.04351 z m 2.41313,2.93489 -2.82619,25.06613 q -0.0435,0.30436 -0.15218,0.4348 -0.1087,0.13043 -0.41306,0.15217 l -4.36972,0.15218 q -0.47828,-0.0435 -0.47828,-0.41305 l 2.86967,-25.28353 q 0.087,-0.47828 0.5435,-0.52176 l 4.23928,-0.15218 q 0.58698,0.0435 0.58698,0.56524 z"
         style="font-style:normal;font-variant:normal;font-weight:normal;font-stretch:normal;font-family:'Contrail One';-inkscape-font-specification:'Contrail One';fill:#ffffff;stroke:#8b4412;stroke-width:4.23333311;stroke-miterlimit:4;stroke-dasharray:none;stroke-opacity:1;paint-order:markers stroke fill"
         id="path87" />
      <path
         inkscape:connector-curvature="0"
         d="m -351.4437,-534.82159 q -0.50002,-1.3044 -0.69568,-2.56531 -0.17392,-1.28266 -0.17392,-3.50013 0,-2.21747 0.47828,-5.47846 1.58702,-10.86996 9.86993,-10.86996 3.19576,0 4.89148,2.19574 1.69571,2.19573 1.69571,5.69585 0,3.50013 -0.4348,6.8046 -0.0652,0.58698 -0.67393,0.60872 l -10.73952,0.36957 q -0.0217,0.3261 -0.0217,0.8696 0,2.45661 0.84785,3.89145 0.8696,1.43483 2.60879,1.43483 1.7392,0 3.21751,-0.50002 1.50006,-0.52175 1.76093,-0.52175 0.26088,0 0.45654,0.17391 0.19566,0.17392 0.19566,0.47828 l -0.4348,3.82623 q -0.0217,0.3261 -0.13044,0.4348 -0.087,0.087 -0.36957,0.19566 -2.63053,0.76089 -5.06541,0.76089 -2.43487,0 -3.78274,-0.58697 -1.34788,-0.58698 -2.17399,-1.50006 -0.80438,-0.93482 -1.32614,-2.21747 z m 4.7393,-12.19609 -0.19566,1.39135 5.67412,-0.28262 q 0.36958,-0.0217 0.47828,-0.13044 0.3261,-0.3261 0.3261,-1.78267 0,-1.47832 -0.1087,-2.06529 -0.087,-0.60872 -0.3261,-1.23918 -0.50002,-1.39135 -1.71745,-1.39135 -1.1957,0 -1.89137,0.41305 -1.54354,0.95656 -2.23922,5.08715 z"
         style="font-style:normal;font-variant:normal;font-weight:normal;font-stretch:normal;font-family:'Contrail One';-inkscape-font-specification:'Contrail One';fill:#ffffff;stroke:#8b4412;stroke-width:4.23333311;stroke-miterlimit:4;stroke-dasharray:none;stroke-opacity:1;paint-order:markers stroke fill"
         id="path89" />
      <path
         inkscape:connector-curvature="0"
         d="m -322.94265,-556.47455 -0.23914,2.00007 q 3.13054,-2.76097 6.00021,-2.76097 3.65231,0 4.60887,4.00015 0.26088,1.08699 0.26088,2.06529 0,0.95656 -0.0652,1.54353 l -2.08704,18.21806 q -0.087,0.54349 -0.54349,0.58697 l -4.39147,0.15218 q -0.47828,-0.0435 -0.47828,-0.41305 l 1.97834,-17.21802 q 0.0652,-0.56524 0.0652,-1.02178 0,-1.78267 -0.84786,-2.41313 -0.82612,-0.65219 -2.10877,-0.65219 -1.28266,0 -2.67401,0.54349 l -2.32617,20.43553 q -0.087,0.54349 -0.5435,0.58697 l -4.39147,0.15218 q -0.47827,-0.0435 -0.47827,-0.41305 l 2.86967,-25.28353 q 0.087,-0.47828 0.54349,-0.52176 l 4.26103,-0.15218 q 0.58698,0.0217 0.58698,0.56524 z"
         style="font-style:normal;font-variant:normal;font-weight:normal;font-stretch:normal;font-family:'Contrail One';-inkscape-font-specification:'Contrail One';fill:#ffffff;stroke:#8b4412;stroke-width:4.23333311;stroke-miterlimit:4;stroke-dasharray:none;stroke-opacity:1;paint-order:markers stroke fill"
         id="path91" />
      <path
         inkscape:connector-curvature="0"
         d="m -292.39807,-556.56151 q 0.47828,0.17392 0.47828,0.82612 l -0.50002,3.93492 q -0.0435,0.4348 -0.60872,0.4348 -0.5435,0 -1.04351,-0.2174 -2.10878,-0.93481 -3.50013,-0.93481 -1.39136,0 -2.21747,1.15221 -0.82612,1.15222 -1.32614,3.30447 -0.93481,4.02188 -0.93481,7.34809 0,5.34802 2.76097,5.34802 2.00007,0 3.23924,-0.50002 1.23918,-0.52175 1.60876,-0.52175 0.76089,0 0.76089,0.65219 l -0.45653,3.82623 q -0.0435,0.39132 -0.17392,0.47828 -0.1087,0.0652 -0.30436,0.15218 -2.63053,0.76089 -4.9567,0.76089 -2.30444,0 -3.65231,-0.58697 -1.32614,-0.58698 -2.10877,-1.50006 -0.78264,-0.93482 -1.26092,-2.23921 -0.84785,-2.23921 -0.84785,-5.5002 0,-3.28273 0.41305,-5.69586 0.4348,-2.43487 0.89134,-3.95666 0.47828,-1.5218 1.26092,-2.91315 0.78263,-1.4131 1.82615,-2.32617 2.28269,-2.00008 6.0437,-2.00008 2.52183,0 4.60886,0.67394 z"
         style="font-style:normal;font-variant:normal;font-weight:normal;font-stretch:normal;font-family:'Contrail One';-inkscape-font-specification:'Contrail One';fill:#ffffff;stroke:#8b4412;stroke-width:4.23333311;stroke-miterlimit:4;stroke-dasharray:none;stroke-opacity:1;paint-order:markers stroke fill"
         id="path93" />
      <path
         inkscape:connector-curvature="0"
         d="m -287.26744,-534.82159 q -0.50002,-1.3044 -0.69568,-2.56531 -0.17392,-1.28266 -0.17392,-3.50013 0,-2.21747 0.47828,-5.47846 1.58701,-10.86996 9.86992,-10.86996 3.19577,0 4.89148,2.19574 1.69572,2.19573 1.69572,5.69585 0,3.50013 -0.4348,6.8046 -0.0652,0.58698 -0.67394,0.60872 l -10.73952,0.36957 q -0.0217,0.3261 -0.0217,0.8696 0,2.45661 0.84786,3.89145 0.86959,1.43483 2.60879,1.43483 1.73919,0 3.21751,-0.50002 1.50005,-0.52175 1.76093,-0.52175 0.26088,0 0.45654,0.17391 0.19566,0.17392 0.19566,0.47828 l -0.4348,3.82623 q -0.0217,0.3261 -0.13044,0.4348 -0.087,0.087 -0.36958,0.19566 -2.63053,0.76089 -5.0654,0.76089 -2.43487,0 -3.78275,-0.58697 -1.34787,-0.58698 -2.17399,-1.50006 -0.80438,-0.93482 -1.32613,-2.21747 z m 4.7393,-12.19609 -0.19566,1.39135 5.67412,-0.28262 q 0.36958,-0.0217 0.47828,-0.13044 0.32609,-0.3261 0.32609,-1.78267 0,-1.47832 -0.10869,-2.06529 -0.087,-0.60872 -0.3261,-1.23918 -0.50002,-1.39135 -1.71746,-1.39135 -1.19569,0 -1.89137,0.41305 -1.54353,0.95656 -2.23921,5.08715 z"
         style="font-style:normal;font-variant:normal;font-weight:normal;font-stretch:normal;font-family:'Contrail One';-inkscape-font-specification:'Contrail One';fill:#ffffff;stroke:#8b4412;stroke-width:4.23333311;stroke-miterlimit:4;stroke-dasharray:none;stroke-opacity:1;paint-order:markers stroke fill"
         id="path95" />
    </g>
    <circle
       r="5.2822461"
       cy="-581.68542"
       cx="-443.91922"
       id="path4893"
       style="opacity:1;vector-effect:none;fill:#999999;fill-opacity:1;stroke:#8b4412;stroke-width:2;stroke-linecap:round;stroke-linejoin:round;stroke-miterlimit:4;stroke-dasharray:none;stroke-dashoffset:0;stroke-opacity:1;paint-order:normal" />
    <circle
       style="opacity:1;vector-effect:none;fill:#999999;fill-opacity:1;stroke:#8b4412;stroke-width:2;stroke-linecap:round;stroke-linejoin:round;stroke-miterlimit:4;stroke-dasharray:none;stroke-dashoffset:0;stroke-opacity:1;paint-order:normal"
       id="circle4895"
       cx="-443.91922"
       cy="-509.02759"
       r="5.2822461" />
  </g>
  <path
     style="color:#000000;font-style:normal;font-variant:normal;font-weight:normal;font-stretch:normal;font-size:medium;line-height:normal;font-family:sans-serif;font-variant-ligatures:normal;font-variant-position:normal;font-variant-caps:normal;font-variant-numeric:normal;font-variant-alternates:normal;font-feature-settings:normal;text-indent:0;text-align:start;text-decoration:none;text-decoration-line:none;text-decoration-style:solid;text-decoration-color:#000000;letter-spacing:normal;word-spacing:normal;text-transform:none;writing-mode:lr-tb;direction:ltr;text-orientation:mixed;dominant-baseline:auto;baseline-shift:baseline;text-anchor:start;white-space:normal;shape-padding:0;clip-rule:nonzero;display:inline;overflow:visible;visibility:visible;opacity:1;isolation:auto;mix-blend-mode:normal;color-interpolation:sRGB;color-interpolation-filters:linearRGB;solid-color:#000000;solid-opacity:1;vector-effect:none;fill:#ffffff;fill-opacity:1;fill-rule:nonzero;stroke:none;stroke-width:5.52940655;stroke-linecap:round;stroke-linejoin:round;stroke-miterlimit:4;stroke-dasharray:none;stroke-dashoffset:0;stroke-opacity:1;paint-order:normal;color-rendering:auto;image-rendering:auto;shape-rendering:auto;text-rendering:auto;enable-background:accumulate"
     d="m 134.982,107.92413 a 2.7649798,2.7649798 0 0 0 -1.61555,0.51434 v 2.8e-4 a 2.7649798,2.7649798 0 0 0 -0.54347,0.51202 c -2.66353,3.29636 -5.69205,6.68898 -7.84212,10.72584 -7.59237,-2.00431 -15.05096,-3.31096 -23.06096,-3.95491 -1.00579,-0.11357 -2.02508,-0.22566 -3.071391,-0.33718 -11.228719,-1.19646 -26.233224,-0.36517 -40.676255,2.57509 -14.443032,2.94027 -28.297273,7.9045 -37.151919,15.64999 -7.269205,6.35865 -12.0394122,13.18554 -14.8064317,20.91504 -3.0026954,7.63418 -4.2241066,16.58075 -3.1320199,28.16193 0.029717,0.62205 0.062234,1.2507 0.1000079,1.88845 0.2725359,4.6041 1.9549551,9.429 4.7487196,14.73734 -0.331112,0.0917 -0.7045702,0.24951 -1.113574,0.46461 -0.7030844,0.16326 -1.4075974,0.32389 -2.1167394,0.4769 a 2.7649798,2.7649798 0 0 0 0.1051512,5.42563 c 2.2756662,0.39953 4.6504261,0.55924 7.0911913,0.53262 0.417119,0.59006 0.832523,1.17583 1.264157,1.79846 3.334436,5.32906 6.876603,10.14055 9.69517,13.75751 2.834624,3.63769 5.110119,6.2859 5.287619,6.50773 a 2.7649798,2.7649798 0 0 0 4.748948,-2.68594 c 3.524451,3.0288 7.280178,5.86022 11.157571,8.45474 5.532838,3.84801 11.26695,7.13142 16.925857,9.82889 -2.215319,2.8045 -4.559733,5.61716 -6.721162,7.57668 -2.069193,1.7204 -4.08421,2.61104 -4.977081,2.63625 -0.06869,-0.0177 -0.14104,-0.0408 -0.214874,-0.0757 -0.179443,-0.14199 -0.543929,-0.54671 -0.945503,-1.17154 -0.524956,-1.37092 -1.481318,-3.67791 -3.072244,-5.67966 l 0.194872,0.27917 c -0.551415,-0.9027 -1.15992,-1.82241 -2.320241,-2.55309 -1.078428,-0.67913 -2.847254,-0.82925 -4.170673,-0.28573 -0.154698,0.0477 -0.306425,0.0827 -0.463409,0.14916 -1.721851,0.7287 -2.940804,2.19231 -3.568911,3.6886 -0.61182,1.45753 -0.793263,2.97151 -0.80235,4.47041 -0.127038,2.59138 0.388203,5.28425 1.312962,7.871 0.30048,0.94945 0.616335,1.79307 0.941789,2.5045 0.280765,0.6137 0.331226,1.04875 1.029796,1.73101 2.071993,3.59575 4.926505,6.73339 8.835386,7.70899 2.566718,0.6406 4.896674,0.24979 6.929751,-0.61721 -1.539837,4.83998 -2.886801,9.96607 -3.682064,15.00393 -1.470631,9.317 -1.249471,18.56152 4.106668,24.79338 a 2.7649798,2.7649798 0 0 0 0,0.003 c 0.04572,0.0531 0.05761,0.0658 0.03429,0.0388 l -0.05258,-0.0626 c 1.321134,1.62322 2.96755,3.02851 4.871015,4.23066 -0.05315,0.25461 -0.118581,0.53159 -0.211731,0.81779 -0.398946,1.22597 -1.029682,2.83294 -1.759569,4.5587 -1.45983,3.45151 -3.312148,7.39072 -4.616422,10.31236 a 2.7649798,2.7649798 0 0 0 -0.236591,1.16382 c -0.589304,1.58508 -1.042654,3.07313 -1.180436,4.56127 -0.08321,0.89922 -0.08161,1.8496 0.3638,2.89968 0.445349,1.05009 1.576125,2.07409 2.743932,2.38908 l -0.514326,-0.19545 c 1.920952,0.95851 3.893565,0.3847 5.275903,-0.35689 2.594606,-1.15667 4.40435,-3.33979 5.908812,-5.78394 A 2.7649798,2.7649798 0 0 0 64.71797,335.731 c 1.837803,-2.89974 2.991323,-6.37869 3.996946,-10.09948 0,-0.006 0.0057,-0.0106 0.0057,-0.016 0.621535,-1.9874 1.091287,-3.76923 1.428399,-5.15017 6.246038,1.15686 13.726288,1.29103 22.372861,0.32032 0.578503,-0.0649 1.431713,-0.35007 2.039589,-1.04038 0.607935,-0.69033 0.766861,-1.53189 0.770404,-2.05819 0,-0.002 -2.85e-4,-0.002 -2.85e-4,-0.004 l 1.295532,-0.24288 c 0.871097,-0.13168 2.034789,-0.33106 3.043384,-0.49805 0.118866,0.23187 0.270135,0.46303 0.45803,0.69264 a 2.7649798,2.7649798 0 0 0 2.92515,1.41241 c 0.0837,-0.0151 0.15379,-0.0283 0.22916,-0.0423 0.0684,-0.003 0.12133,0.006 0.19258,-9.9e-4 0.16271,-0.0156 0.33935,-0.0429 0.50491,-0.0608 -0.2786,1.46707 -0.60839,2.84217 -0.97665,4.18151 -0.94511,2.87366 -2.11691,6.07318 -2.78914,9.09597 -0.339224,1.52552 -0.563071,3.01006 -0.488894,4.50211 0.07007,1.40784 0.446484,2.93316 1.493034,4.17523 0.68245,0.9067 1.87312,1.7012 3.18082,1.88847 1.72071,0.33243 3.3729,-0.34519 4.53842,-1.23241 1.21872,-0.9277 2.18497,-2.12484 3.10945,-3.50288 0.64902,-0.93098 1.15718,-1.8114 1.51897,-2.52452 l -0.0429,0.0805 c 0.14304,-0.26027 0.28345,-0.52739 0.42347,-0.79521 a 2.7649798,2.7649798 0 0 0 0.0574,-0.0968 2.7649798,2.7649798 0 0 0 0.0326,-0.0583 2.7649798,2.7649798 0 0 0 0.0508,-0.0917 c 0.0246,-0.0497 0.0297,-0.061 0.016,-0.0331 l -0.006,0.002 a 2.7649798,2.7649798 0 0 0 0,-0.005 v 0.002 c 0.0131,-0.0265 0.0251,-0.0517 0.0378,-0.078 0.0703,-0.14253 0.13921,-0.28359 0.20601,-0.42148 1.92329,-3.84411 3.59023,-8.3422 4.79244,-12.18282 0.60113,-1.9203 1.0831,-3.66998 1.41668,-5.10988 0.13487,-0.58202 0.23939,-1.03515 0.33203,-1.49413 2.90091,-0.80302 5.74251,-1.62492 8.25705,-2.37051 l 0.0148,-0.005 c 2.02719,-0.58449 3.25112,-0.96494 3.25112,-0.96494 a 2.7649798,2.7649798 0 0 0 1.81248,-3.4786 c -3.00743,-9.44532 -4.99274,-19.5919 -6.16283,-26.61268 0.0909,0.0462 0.17224,0.0965 0.26888,0.14001 0.52884,0.27672 1.13414,0.52313 1.90701,0.58806 0.82766,0.0695 1.86791,-0.15826 2.65164,-0.72121 2.57306,-1.84819 3.03807,-5.07907 2.68255,-7.83442 -0.35329,-2.73817 -1.39714,-5.53129 -2.60906,-8.19331 -0.49633,-1.55568 -1.66231,-3.95637 -5.11418,-9.27969 -0.33803,-0.52867 -0.40478,-0.62233 -0.57439,-0.87723 0,-0.0123 0,-0.0264 -0.006,-0.0385 l 0.006,0.038 c -5.1e-4,-9.8e-4 0,-0.002 0,-0.003 -0.16224,-2.74238 -1.35668,-5.25381 -2.68792,-7.5844 -0.87322,-1.60778 -1.92724,-3.2234 -3.03945,-4.84242 10.91075,-5.24526 21.97655,-12.68895 31.26454,-21.95569 0.0166,-0.0167 0.0309,-0.0308 0.0212,-0.0212 a 2.7649798,2.7649798 0 0 0 0.012,-0.0117 c 0.14734,-0.14706 0.29832,-0.29775 0.45181,-0.4529 l 0.008,-0.008 c 1.51046,-1.51297 2.95886,-3.0695 4.32606,-4.67071 1.74647,-2.01622 3.3906,-4.11281 4.94078,-6.27028 l 1.83215,5.57992 a 2.7649798,2.7649798 0 0 0 5.34077,-0.34974 2.7649798,2.7649798 0 0 0 0.056,-0.30402 l 1.24467,-9.86833 c 0.14212,-0.50925 0.30105,-1.02578 0.49975,-1.56586 a 2.7649798,2.7649798 0 0 0 0.12287,-0.46204 c 0.7248,-1.42603 1.10357,-3.06611 1.10357,-4.81814 0,-1.06279 -0.14241,-2.08583 -0.4106,-3.0437 l 0.0509,0.21117 c -0.17259,-0.87646 -0.17419,-1.78533 -0.0532,-2.79711 0.7808,-2.17631 2.00592,-5.94565 2.94543,-10.58752 1.92975,-6.98569 3.05778,-16.45911 -2.19538,-29.58924 -5.2991,-13.24406 -16.50896,-21.60324 -30.74758,-27.08549 l -0.0126,-0.006 c -2.85811,-1.1634 -5.83132,-2.18257 -8.99426,-3.12915 0.47992,-1.74061 1.14592,-3.56183 1.85078,-5.46792 0.72131,-1.49328 1.52457,-3.05063 2.27989,-4.6853 a 2.7649798,2.7649798 0 0 0 -2.50134,-3.92376 z m -45.2569,12.48169 c 3.058014,0.0392 5.929956,0.19906 8.537648,0.47691 1.045341,0.11142 2.063992,0.22333 3.069102,0.33691 a 2.7649798,2.7649798 0 0 0 0.09,0.009 c 8.35489,0.66818 16.00619,2.06197 23.97134,4.28037 a 2.7649798,2.7649798 0 0 0 0.008,0 l 0.33888,0.0935 a 2.7649798,2.7649798 0 0 0 2.00131,-0.21172 2.7649798,2.7649798 0 0 0 1.62384,1.20497 h -0.0143 c 3.9822,1.10909 7.55271,2.28779 10.9239,3.66058 a 2.7649798,2.7649798 0 0 0 0.0508,0.0199 c 13.43329,5.16297 23.03605,12.47157 27.6479,23.99872 4.85627,12.13822 3.74979,19.79307 1.97278,26.1718 a 2.7649798,2.7649798 0 0 0 -0.0474,0.19661 c -0.91362,4.53999 -2.16058,8.29825 -2.86452,10.22832 a 2.7649798,2.7649798 0 0 0 -0.142,0.57377 c -0.21197,1.55523 -0.23122,3.17357 0.0926,4.81786 a 2.7649798,2.7649798 0 0 0 0.0503,0.21144 c 0.12824,0.45799 0.20573,0.98695 0.20573,1.55272 0,1.19881 -0.37688,2.22808 -0.75806,2.75911 a 2.7649798,2.7649798 0 0 0 -0.26631,0.46033 c -0.032,-0.0352 -0.0602,-0.0632 -0.10543,-0.12317 a 2.7649798,2.7649798 0 0 0 -4.58271,0.24603 c -0.0656,0.10993 -0.14332,0.23621 -0.23059,0.38031 a 2.7649798,2.7649798 0 0 0 -0.0703,0.13059 2.7649798,2.7649798 0 0 0 -0.0874,0.1383 v -0.0128 c -0.0172,0.0284 -0.0251,0.0415 -0.024,0.0388 a 2.7649798,2.7649798 0 0 0 -0.0212,0.0385 2.7649798,2.7649798 0 0 0 -0.0257,0.0383 c -2.22001,3.61561 -4.78976,7.07384 -7.62701,10.34892 a 2.7649798,2.7649798 0 0 0 -0.0131,0.0154 c -1.26821,1.48578 -2.62392,2.94364 -4.04895,4.37068 a 2.7649798,2.7649798 0 0 0 -0.0103,0.01 c -0.14109,0.14274 -0.28682,0.28816 -0.43632,0.43747 -0.0137,0.0139 -0.0314,0.0316 -0.0251,0.0254 a 2.7649798,2.7649798 0 0 0 -0.006,0.006 c -9.61511,9.5931 -21.41233,17.25694 -32.70323,22.26659 h 0.41232 a 2.7649798,2.7649798 0 0 0 -0.73348,0.15343 2.7649798,2.7649798 0 0 0 -1.5367,2.82998 l -0.29059,-0.18774 0.0514,-0.57205 0.0566,-0.29146 a 2.7649798,2.7649798 0 0 0 1.91873,3.50032 c 1.41074,1.97851 2.69867,3.90375 3.65806,5.67308 a 2.7649798,2.7649798 0 0 0 0.0303,0.0548 c 1.15855,2.02518 1.9493,4.15871 1.99644,5.28391 a 2.7649798,2.7649798 0 0 0 0.0178,0.21744 c 0.0212,0.1746 0.036,0.3318 0.044,0.46803 a 2.7649798,2.7649798 0 0 0 0.47376,1.39813 c 0,0 0.35144,0.51694 0.89978,1.37526 a 2.7649798,2.7649798 0 0 0 0.0103,0.0157 c 3.55691,5.48519 4.46201,7.78954 4.55556,8.12073 a 2.7649798,2.7649798 0 0 0 0.14544,0.39603 c 1.09598,2.40156 1.94719,4.86963 2.17767,6.65573 0.10892,0.84452 0.10006,1.40237 0.0263,1.80131 -0.096,-0.0888 -0.18767,-0.16137 -0.27945,-0.2663 A 2.7649798,2.7649798 0 0 0 129.71372,276.1 c -0.58295,-0.58649 -1.21734,-1.34862 -1.7599,-2.06019 a 2.7649798,2.7649798 0 0 0 -0.16059,-0.19201 c -0.44911,-0.48983 -0.98562,-1.15454 -1.39125,-1.84959 a 2.7649798,2.7649798 0 0 0 -5.13389,1.71359 c 0,0 1.99719,17.26444 6.86403,33.69531 -0.28186,0.0824 -0.18985,0.0591 -0.5189,0.15402 a 2.7649798,2.7649798 0 0 0 -0.02,0.006 c -3.03333,0.89949 -6.48721,1.90989 -9.95948,2.84568 a 2.7649798,2.7649798 0 0 0 -1.97016,2.03019 c -0.0131,0.0561 -0.0314,0.12845 -0.0514,0.21345 a 2.7649798,2.7649798 0 0 0 -0.0692,0.82351 c -0.0269,-0.40023 -0.0835,0.75667 -0.37403,2.01075 -0.29076,1.25517 -0.7408,2.89743 -1.30696,4.70614 -1.13237,3.61738 -2.74187,7.92588 -4.4604,11.36074 a 2.7649798,2.7649798 0 0 0 -0.0154,0.0323 c -0.0572,0.11806 -0.11304,0.23183 -0.16916,0.34603 a 2.7649798,2.7649798 0 0 0 -0.0743,0.13144 c -0.15526,0.30058 -0.31099,0.59312 -0.4666,0.87637 a 2.7649798,2.7649798 0 0 0 -0.0423,0.0803 c -0.24391,0.48068 -0.64565,1.18019 -1.12981,1.8736 a 2.7649798,2.7649798 0 0 0 -0.0309,0.0457 c -0.72903,1.08985 -1.44502,1.87508 -1.88564,2.21048 -0.12955,0.0986 -0.1304,0.0973 -0.17458,0.12744 -0.0388,-0.0617 -0.13687,-0.2482 -0.16601,-0.83378 -0.0348,-0.69958 0.0866,-1.77957 0.36403,-3.02714 0.55484,-2.49513 1.68442,-5.64233 2.67341,-8.65678 a 2.7649798,2.7649798 0 0 0 0.0383,-0.12744 c 0.67171,-2.43777 1.28587,-5.10917 1.64356,-8.2656 a 2.7649798,2.7649798 0 0 0 -0.016,-0.74235 c -0.0332,-0.21216 -0.0777,-0.42847 -0.13687,-0.64948 a 2.7649798,2.7649798 0 0 0 -3.15574,-2.00704 c -0.79269,0.14122 -1.53686,0.25433 -2.25046,0.35117 -0.0491,-0.13879 -0.0987,-0.27862 -0.14316,-0.40746 a 2.7649798,2.7649798 0 0 0 -3.07715,-1.82503 c -2.345962,0.39868 -3.925916,0.66286 -5.456209,0.89352 a 2.7649798,2.7649798 0 0 0 -0.09743,0.0163 l -2.863369,0.5369 a 2.7649798,2.7649798 0 0 0 -1.066085,0.0166 c -0.04572,0.01 -0.104408,0.0358 -0.15264,0.0483 a 2.7649798,2.7649798 0 0 0 -0.438606,0.13944 c -0.0085,0.004 -0.01543,0.004 -0.024,0.008 a 2.7649798,2.7649798 0 0 0 -0.03428,0.0169 2.7649798,2.7649798 0 0 0 -0.07543,0.0317 c -0.01029,0.005 -0.01943,0.0147 -0.02971,0.0197 a 2.7649798,2.7649798 0 0 0 -1.007509,0.85465 c -0.336369,0.41705 -0.591361,0.89012 -0.678054,1.29811 -0.04572,0.21607 -0.06578,0.40506 -0.07401,0.58005 -8.237111,0.70694 -15.117943,0.28248 -20.410991,-1.0318 a 2.7649798,2.7649798 0 0 0 -0.02057,-0.005 c -0.04286,-0.0103 -0.09543,-0.0233 -0.157727,-0.0385 a 2.7649798,2.7649798 0 0 0 -3.348551,2.04761 c -0.0069,0.0279 -0.01143,0.0479 -0.01428,0.0605 a 2.7649798,2.7649798 0 0 0 -0.06515,0.84892 c -0.1743,0.83711 -0.692684,3.24239 -1.758997,6.63347 a 2.7649798,2.7649798 0 0 0 -0.032,0.10829 c -0.869499,3.21923 -1.861634,6.00012 -3.024527,8.03129 a 2.7649798,2.7649798 0 0 0 -0.655766,0.76064 c -1.266157,2.18351 -2.7037,3.6701 -3.763212,4.19438 0.188358,-0.82487 0.494668,-1.87822 1.00265,-3.16972 a 2.7649798,2.7649798 0 0 0 0.185444,-0.86607 c 1.239984,-2.74554 2.856798,-6.2171 4.236964,-9.48029 0.762404,-1.80249 1.438914,-3.50855 1.924782,-5.00159 0.48581,-1.49304 0.986249,-2.47877 0.671196,-4.3201 a 2.7649798,2.7649798 0 0 0 -0.208017,-0.67749 c -0.09458,-0.20804 -0.220017,-0.43856 -0.396317,-0.67749 a 2.7649798,2.7649798 0 0 0 -0.925844,-0.79893 c -2.051364,-1.09161 -3.623373,-2.3671 -4.769807,-3.77577 a 2.7649798,2.7649798 0 0 0 -0.05258,-0.0629 c -0.04057,-0.0467 -0.044,-0.0502 -0.02629,-0.0296 v -0.002 c 4e-4,5.2e-4 0,-9.8e-4 -5.71e-4,-5.5e-4 -3.54011,-4.1219 -4.196105,-11.70929 -2.836282,-20.32412 1.360165,-8.61674 4.563905,-17.99489 7.486993,-25.26084 a 2.7649798,2.7649798 0 0 0 -5.033885,-2.27563 c 0.126582,-0.25123 0.0085,-0.0164 -0.0057,0.005 -0.01086,0.021 -0.02801,0.0528 -0.04857,0.092 a 2.7649798,2.7649798 0 0 0 -0.01201,0.0223 c -0.726858,1.39112 -1.613099,2.63071 -2.579119,3.64805 a 2.7649798,2.7649798 0 0 0 -0.04457,0.048 c -1.956498,2.16073 -4.311085,3.8129 -7.136623,3.10771 -1.614871,-0.40306 -3.948714,-2.49277 -5.577071,-5.42735 a 2.7649798,2.7649798 0 0 0 -0.693484,-0.82008 c 0.848753,0.67686 0.300653,0.32213 0.09458,-0.12829 -0.206074,-0.45041 -0.471981,-1.14157 -0.722629,-1.94247 a 2.7649798,2.7649798 0 0 0 -0.036,-0.10686 c -0.7304,-2.03809 -1.084772,-4.12788 -1.002422,-5.76738 a 2.7649798,2.7649798 0 0 0 0.0057,-0.13886 c 0,-1.05458 0.161383,-1.94028 0.375171,-2.44966 0.156699,-0.37324 0.283966,-0.51263 0.44375,-0.61748 0.08698,0.11324 0.161213,0.19503 0.262364,0.36061 a 2.7649798,2.7649798 0 0 0 0.194816,0.27887 c 0.943217,1.18674 1.959069,3.46275 2.356243,4.51755 a 2.7649798,2.7649798 0 0 0 0.227447,0.46605 c 0.679997,1.11408 1.476918,2.24457 2.780849,3.10628 a 2.7649798,2.7649798 0 0 0 0.165727,0.10144 c 0.735259,0.41491 1.541666,0.69164 2.354473,0.81236 a 2.7649798,2.7649798 0 0 0 0.260021,0.026 c 3.505135,0.18528 6.368334,-1.78191 8.981398,-3.9675 a 2.7649798,2.7649798 0 0 0 0.07887,-0.0686 c 3.228314,-2.91446 6.254153,-6.8018 8.893963,-10.20979 a 2.7649798,2.7649798 0 0 0 -0.191215,-4.97702 c -0.02229,-0.01 -0.04286,-0.0186 -0.06257,-0.0272 a 2.7649798,2.7649798 0 0 0 -0.0057,-0.002 2.7649798,2.7649798 0 0 0 0,-5.6e-4 c -6.384164,-2.78047 -13.02389,-6.47164 -19.365422,-10.88384 a 2.7649798,2.7649798 0 0 0 -0.04229,-0.0288 c -9.457034,-6.32866 -18.122521,-14.07291 -23.866177,-22.4466 a 2.7649798,2.7649798 0 0 0 -0.04972,-0.0651 2.7649798,2.7649798 0 0 0 -0.07743,-0.12087 c -0.996992,-1.46603 -1.904721,-2.95024 -2.7137,-4.44839 a 2.7649798,2.7649798 0 0 0 -0.08087,-0.13944 c -0.05258,-0.0855 -0.115953,-0.19153 -0.192587,-0.31717 a 2.7649798,2.7649798 0 0 0 -3.177396,-1.20125 c 0.03658,-0.0115 0,-0.002 -0.082,0.0245 a 2.7649798,2.7649798 0 0 0 -1.411884,1.01867 c -0.256192,-0.29261 -0.484667,-0.45543 -0.707199,-0.59263 a 2.7649798,2.7649798 0 0 0 -0.370601,-1.55842 c -3.593485,-6.15407 -5.4682052,-11.23366 -5.7130817,-15.37112 -0.036574,-0.61598 -0.068349,-1.22576 -0.09715,-1.833 a 2.7649798,2.7649798 0 0 0 -0.00971,-0.13232 C 7.5429818,171.2605 8.6974734,163.29732 11.3746,156.50997 a 2.7649798,2.7649798 0 0 0 0.032,-0.0851 c 2.439794,-6.83655 6.536232,-12.7758 13.255451,-18.65339 7.540199,-6.59576 20.713644,-11.56398 34.614575,-14.39388 10.425685,-2.12246 21.275859,-3.08983 30.449844,-2.972 z m -79.19914,78.29564 c 0.02514,0.0212 0.02114,0.0541 -0.01314,0.0651 -0.04229,0.0136 -0.212703,0.0498 -0.29631,0.0714 0.154755,-0.12672 0.272651,-0.16764 0.309168,-0.13657 z m 153.26324,1.91616 0.5892,9.8e-4 0.10257,0.24859 a 2.7649798,2.7649798 0 0 0 -0.71605,-0.16543 z m -151.572763,5.59165 c -0.012,0.0204 -0.04515,0.026 -0.108866,9.8e-4 0.03657,-5.5e-4 0.07246,-2e-4 0.108866,-9.8e-4 z m 152.203963,9.02224 a 2.7649798,2.7649798 0 0 0 0.0342,0.0923 v 3e-4 c 6e-5,8e-5 -0.032,-0.0926 -0.032,-0.0926 z m -96.709561,29.27236 c -0.05258,0.0772 -0.0091,0.0129 -0.0097,0.0137 -2.85e-4,3.8e-4 -4.57e-4,9.8e-4 -0.008,0.012 -0.0057,0.006 -0.0085,0.0122 -0.02457,0.0332 0,0.004 -0.0091,0.0118 -0.012,0.0157 a 2.7649798,2.7649798 0 0 0 0.05429,-0.0745 z m -9.102265,23.45866 -0.04457,0.048 c 0.0075,-0.008 0.01429,-0.0169 0.02172,-0.0248 0.0069,-0.008 0.016,-0.0154 0.02286,-0.0231 z m 52.859906,68.10099 a 2.7649798,2.7649798 0 0 0 0.0469,2.9e-4 l -0.006,0.002 c 0.12064,0.005 0.10784,0.007 -0.0429,-0.003 z"
     id="path367"
     inkscape:connector-curvature="0" />
  <path
     inkscape:export-ydpi="96"
     inkscape:export-xdpi="96"
     sodipodi:nodetypes="cscc"
     inkscape:connector-curvature="0"
     id="path369"
     d="m 126.79558,276.74489 c 0.0188,0.0888 2.95012,4.7865 5.00743,2.04099 2.74868,-3.66799 -1.24844,-11.36424 -1.29359,-11.34708 z"
     style="display:inline;opacity:1;fill:#ffdab9;fill-opacity:1;fill-rule:nonzero;stroke:none;stroke-width:0.38893679;stroke-linecap:round;stroke-linejoin:miter;stroke-miterlimit:4;stroke-dasharray:none;stroke-dashoffset:0;stroke-opacity:1;paint-order:normal" />
  <path
     inkscape:export-ydpi="96"
     inkscape:export-xdpi="96"
     sodipodi:nodetypes="cscc"
     inkscape:connector-curvature="0"
     id="path371"
     d="m 39.60701,263.25786 c -0.665825,1.22924 -6.098199,-13.48523 -0.243848,-15.9629 3.549938,-1.5024 6.560634,7.56113 6.550405,7.55969 z"
     style="display:inline;opacity:1;fill:#ffdab9;fill-opacity:1;fill-rule:nonzero;stroke:none;stroke-width:0.38893679;stroke-linecap:round;stroke-linejoin:miter;stroke-miterlimit:4;stroke-dasharray:none;stroke-dashoffset:0;stroke-opacity:1;paint-order:normal" />
  <path
     inkscape:export-ydpi="96"
     inkscape:export-xdpi="96"
     sodipodi:nodetypes="ccsc"
     inkscape:connector-curvature="0"
     id="path373"
     d="m 54.494704,333.13231 7.396302,1.46492 c 0.05486,0.40884 -4.909818,7.1039 -7.872739,5.5257 -2.372989,-1.264 0.474894,-6.99062 0.476437,-6.99062 z"
     style="display:inline;opacity:1;fill:#cd853f;fill-opacity:1;fill-rule:nonzero;stroke:none;stroke-width:0.38893679;stroke-linecap:round;stroke-linejoin:miter;stroke-miterlimit:4;stroke-dasharray:none;stroke-dashoffset:0;stroke-opacity:1;paint-order:normal" />
  <path
     inkscape:export-ydpi="96"
     inkscape:export-xdpi="96"
     sodipodi:nodetypes="ccccc"
     inkscape:connector-curvature="0"
     id="path375"
     d="m 61.130717,314.49212 c 1.015338,1.53752 -4.249251,12.38687 -6.950151,18.4369 2.90823,0.68713 3.68955,2.98298 8.204651,1.32153 2.68787,-4.24091 4.053635,-10.75094 5.645247,-17.45847 z"
     style="display:inline;opacity:1;fill:#add8e6;fill-opacity:1;fill-rule:nonzero;stroke:none;stroke-width:0.38893679;stroke-linecap:round;stroke-linejoin:miter;stroke-miterlimit:4;stroke-dasharray:none;stroke-dashoffset:0;stroke-opacity:1" />
  <path
     inkscape:export-ydpi="96"
     inkscape:export-xdpi="96"
     sodipodi:nodetypes="ccccc"
     inkscape:connector-curvature="0"
     id="path377"
     d="m 107.33827,314.91031 c -0.64342,7.25078 -2.68873,11.69767 -4.07719,17.45849 1.08872,2.96007 5.13544,1.33027 8.35182,0.96625 3.47404,-6.99628 5.28024,-14.07572 6.80682,-20.51559 z"
     style="display:inline;opacity:1;fill:#add8e6;fill-opacity:1;fill-rule:nonzero;stroke:none;stroke-width:0.38893679;stroke-linecap:round;stroke-linejoin:miter;stroke-miterlimit:4;stroke-dasharray:none;stroke-dashoffset:0;stroke-opacity:1" />
  <path
     inkscape:export-ydpi="96"
     inkscape:export-xdpi="96"
     sodipodi:nodetypes="ccccsssscsccccccc"
     inkscape:connector-curvature="0"
     id="path379"
     d="m 45.913567,254.85465 -6.306557,8.40321 c 5.479405,11.2368 15.573692,7.19278 20.060105,-1.5803 -5.482264,15.73466 -11.395818,31.56833 -6.272498,44.86938 3.679607,9.20869 17.332804,13.90321 38.819937,11.49089 1.198495,-0.1346 -1.135518,-2.63001 0.134811,-2.79382 3.532909,-0.45558 5.247273,-0.7379 9.545155,-1.46875 0,0 -0.36895,2.63743 1.31771,2.4761 7.72301,-0.73866 20.58015,-4.67725 28.3798,-6.98632 -5.35347,-16.81343 -7.57461,-35.87303 -7.57461,-35.87303 1.14026,1.95378 2.77816,3.35288 2.77816,3.35288 l 3.71418,-9.26887 c 0,0 0.50296,-1.2116 -5.92206,-10.90011 -0.2346,-4.1559 -3.24975,-9.0841 -7.00433,-14.21777 l -52.374844,0.58755 c -6.056938,7.81239 -14.233415,18.51213 -19.294959,11.90896 z"
     style="display:inline;opacity:1;fill:#ffffff;fill-opacity:1;fill-rule:nonzero;stroke:none;stroke-width:0.38893679;stroke-linecap:round;stroke-linejoin:miter;stroke-miterlimit:4;stroke-dasharray:none;stroke-dashoffset:0;stroke-opacity:1" />
  <path
     inkscape:export-ydpi="96"
     inkscape:export-xdpi="96"
     sodipodi:nodetypes="csccc"
     inkscape:connector-curvature="0"
     id="path381"
     d="m 172.29148,165.50094 c 6.23375,48.25143 -54.11721,84.13611 -83.118138,83.52771 C 60.563929,248.42855 1.8687014,210.45678 10.312,167.78231 38.194726,102.32874 171.22042,130.89228 172.29148,165.50094 Z"
     style="display:inline;opacity:1;fill:#ffdab9;fill-opacity:1;fill-rule:nonzero;stroke:none;stroke-width:0.52598703;stroke-linecap:round;stroke-linejoin:miter;stroke-miterlimit:4;stroke-dasharray:none;stroke-dashoffset:0;stroke-opacity:1" />
  <ellipse
     inkscape:export-ydpi="96"
     inkscape:export-xdpi="96"
     ry="5.6551828"
     rx="3.7112141"
     cy="197.94754"
     cx="166.2475"
     id="ellipse391"
     style="display:inline;opacity:1;fill:#ffdab9;fill-opacity:1;fill-rule:nonzero;stroke:none;stroke-width:0.6924336;stroke-linecap:round;stroke-linejoin:miter;stroke-miterlimit:4;stroke-dasharray:none;stroke-dashoffset:0;stroke-opacity:1;paint-order:normal" />
  <path
     inkscape:export-ydpi="96"
     inkscape:export-xdpi="96"
     sodipodi:nodetypes="csc"
     inkscape:connector-curvature="0"
     id="path393"
     d="m 165.05182,199.14744 c -0.98219,-0.2564 -1.21376,-0.94813 -0.95734,-1.93026 0.25637,-0.98214 1.26039,-1.57052 2.24252,-1.31412"
     style="display:inline;opacity:1;fill:#ffdab9;fill-opacity:1;fill-rule:nonzero;stroke:none;stroke-width:0.52598703;stroke-linecap:round;stroke-linejoin:miter;stroke-miterlimit:4;stroke-dasharray:none;stroke-dashoffset:0;stroke-opacity:1;paint-order:normal" />
  <path
     inkscape:export-ydpi="96"
     inkscape:export-xdpi="96"
     sodipodi:nodetypes="ccccsc"
     inkscape:connector-curvature="0"
     id="path395"
     d="m 103.46379,332.46167 1.33976,1.15497 4.24262,-0.084 2.44443,-0.26998 c 0.28911,0.0197 -3.27946,7.16538 -6.63579,6.80184 -3.27842,-0.35512 -2.22806,-7.39341 -1.39102,-7.60269 z"
     style="display:inline;opacity:1;fill:#cd853f;fill-opacity:1;fill-rule:nonzero;stroke:none;stroke-width:0.38893679;stroke-linecap:round;stroke-linejoin:miter;stroke-miterlimit:4;stroke-dasharray:none;stroke-dashoffset:0;stroke-opacity:1;paint-order:normal" />
  <path
     inkscape:export-ydpi="96"
     inkscape:export-xdpi="96"
     inkscape:connector-curvature="0"
     id="path397"
     d="m 133.59927,112.8042 c -2.25201,3.14503 -5.75721,6.18066 -6.94239,10.185 l -0.52204,-0.14354 c -14.32125,-3.98863 -27.797,-5.39405 -45.650531,-4.66151 -24.557433,1.00757 -52.626175,8.84832 -64.48483,24.74885 -7.7868457,10.4409 -12.0735287,21.51946 -10.0575973,40.60072 -0.1066371,3.74174 2.7558186,11.06655 6.0780823,17.25125 0.499468,0.92988 -4.5272164,0.95277 -4.5401317,2.00584 -0.00572,0.4715 5.5112947,0.18618 6.1051707,1.01564 4.758091,6.64574 10.575867,15.9325 13.691143,18.48581 0.799834,0.65551 -3.947171,-8.08604 -6.434797,-13.20583 -1.441657,-2.96724 -2.884399,-5.37817 -3.113389,-5.69545 3.188138,-0.98932 19.158205,-5.59206 19.158205,-5.59206 5.691594,-1.83791 18.350313,-10.13983 18.350313,-10.13983 8.437641,-0.26988 12.070672,-0.3432 23.25413,-7.26254 4.071981,-2.51936 7.359841,-4.0698 10.274701,-6.06045 13.863221,-9.4675 18.933561,-14.237 28.280471,-16.46154 6.20523,-1.29725 18.11287,-1.30753 19.16678,0.58989 4.06267,8.30958 20.88612,25.52185 25.04684,31.97007 2.99516,4.64194 5.16682,-0.87281 7.78554,2.91273 0,0 6.71527,-16.05596 4.1901,-30.00405 -1.36479,-7.53868 -5.85572,-19.3166 -14.26354,-25.5635 -9.46086,-7.02931 -17.72728,-10.74142 -28.8796,-13.8475 h -0.006 c 0.59204,-3.75951 2.26727,-7.42424 3.51325,-11.12645 z m 29.7815,90.30887 c 0.0824,0.10975 3.67492,11.28275 3.67492,11.28275 l 1.3728,-10.8827 c -1.58745,0.26796 -3.2866,0.0646 -5.04772,-0.40005 z"
     style="display:inline;opacity:1;fill:#eb4e14;fill-opacity:1;fill-rule:nonzero;stroke:none;stroke-width:0.81011146;stroke-linecap:round;stroke-linejoin:bevel;stroke-miterlimit:4;stroke-dasharray:none;stroke-dashoffset:0;stroke-opacity:1;paint-order:normal"
     sodipodi:nodetypes="cccssccsccccccssccsccscccccccc" />
  <path
     style="display:inline;fill:#b1cdf1;fill-opacity:1;stroke:none;stroke-width:0.27216342px;stroke-linecap:butt;stroke-linejoin:miter;stroke-opacity:1"
     d="m 75.699416,247.03215 2.426649,3.30238 4.301199,2.83487 1.136147,3.78538 1.894207,13.22378 1.955012,7.13605 3.459761,18.76874 1.427999,19.35526 9.38441,-1.75956 C 98.063647,302.66097 96.476492,291.5729 96.112806,280.44273 l 2.932576,-18.57325 1.173068,-7.62477 6.81928,-6.55932 1.78305,-2.23852 -10.752904,2.63935 -8.993342,1.07524 -11.339471,-2.44382 z"
     id="path399"
     inkscape:connector-curvature="0"
     sodipodi:nodetypes="cccccccccccccccccc" />
  <path
     style="display:inline;opacity:1;vector-effect:none;fill:none;fill-opacity:1;stroke:#8b4513;stroke-width:1.04375541;stroke-linecap:round;stroke-linejoin:round;stroke-miterlimit:4;stroke-dasharray:none;stroke-dashoffset:0;stroke-opacity:1"
     d="m 65.922983,242.86878 -0.0097,0.9948 c 1.426684,4.39858 2.020217,9.27325 5.115091,12.71852 2.024218,0.12834 3.930541,-0.14028 5.80629,-1.10594 5.675135,8.60425 7.403729,15.83109 10.97847,23.73524 -1.582753,-8.20651 -4.125584,-16.59589 -4.757463,-24.5647 -1.089457,-1.74265 -2.23892,-3.46816 -5.115092,-4.70034 l -3.794757,-3.8473"
     id="path401"
     inkscape:connector-curvature="0"
     sodipodi:nodetypes="cccccccc" />
  <path
     style="display:inline;opacity:1;vector-effect:none;fill:none;fill-opacity:1;stroke:#8b4513;stroke-width:1.04375541;stroke-linecap:round;stroke-linejoin:round;stroke-miterlimit:4;stroke-dasharray:none;stroke-dashoffset:0;stroke-opacity:1"
     d="m 87.755572,278.97778 c 3.151907,13.10099 3.13362,25.80571 4.700373,38.70855"
     id="path403"
     inkscape:connector-curvature="0"
     sodipodi:nodetypes="cc" />
  <path
     sodipodi:nodetypes="ccccccc"
     inkscape:connector-curvature="0"
     id="path405"
     d="m 116.26943,242.78817 c 0,0 -1.66635,10.44178 -4.64242,13.99027 -2.01874,0.19702 -3.93311,-0.007 -5.84052,-0.90809 -5.37963,8.79214 -6.732307,15.62948 -10.036513,23.65052 1.303018,-8.25554 3.430101,-16.28247 3.790873,-24.26815 1.02962,-1.77865 2.11983,-3.54219 4.95245,-4.87141 l 3.80876,-4.79549"
     style="display:inline;opacity:1;vector-effect:none;fill:none;fill-opacity:1;stroke:#8b4513;stroke-width:1.04395199;stroke-linecap:round;stroke-linejoin:round;stroke-miterlimit:4;stroke-dasharray:none;stroke-dashoffset:0;stroke-opacity:1" />
  <path
     inkscape:connector-curvature="0"
     id="path407"
     d="m 95.742205,279.54262 c 1.235356,12.79084 2.058678,24.33132 6.816255,36.76993"
     style="display:inline;opacity:1;vector-effect:none;fill:none;fill-opacity:1;stroke:#8b4513;stroke-width:1.04375541;stroke-linecap:round;stroke-linejoin:round;stroke-miterlimit:4;stroke-dasharray:none;stroke-dashoffset:0;stroke-opacity:1"
     sodipodi:nodetypes="cc" />
  <path
     style="display:inline;opacity:1;vector-effect:none;fill:none;fill-opacity:1;stroke:#8b4513;stroke-width:1.04375541;stroke-linecap:round;stroke-linejoin:round;stroke-miterlimit:4;stroke-dasharray:none;stroke-dashoffset:0;stroke-opacity:1"
     d="m 92.202611,315.0476 8.748979,-1.46631"
     id="path409"
     inkscape:connector-curvature="0" />
  <path
     inkscape:export-ydpi="96"
     inkscape:export-xdpi="96"
     style="opacity:1;fill:none;fill-opacity:1;fill-rule:nonzero;stroke:#8b4513;stroke-width:1.04375541;stroke-linecap:round;stroke-linejoin:round;stroke-miterlimit:4;stroke-dasharray:none;stroke-dashoffset:0;stroke-opacity:1"
     d="m 65.521465,248.6307 c 0,0 -23.568669,45.72556 -10.036053,61.47066 7.354469,8.55682 21.6092,9.37111 36.961218,7.59955 m 10.11612,-1.37455 c 15.29184,-2.76602 29.02928,-7.06132 29.02928,-7.06132 0,0 -11.02717,-33.77734 -7.15892,-52.05143 1.12918,-5.33466 -7.54717,-15.20681 -7.54717,-15.20681"
     id="path411"
     inkscape:connector-curvature="0"
     sodipodi:nodetypes="cscccsc" />
  <path
     inkscape:export-ydpi="96"
     inkscape:export-xdpi="96"
     sodipodi:nodetypes="csc"
     inkscape:connector-curvature="0"
     id="path413"
     d="m 61.130717,314.60641 c 2.310926,3.11426 -12.825074,25.12183 -6.690702,25.60305 8.997457,0.70582 13.603536,-22.9454 13.603536,-22.9454"
     style="opacity:1;fill:none;fill-opacity:1;fill-rule:nonzero;stroke:#8b4513;stroke-width:1.04375541;stroke-linecap:round;stroke-linejoin:round;stroke-miterlimit:4;stroke-dasharray:none;stroke-dashoffset:0;stroke-opacity:1" />
  <path
     inkscape:export-ydpi="96"
     inkscape:export-xdpi="96"
     sodipodi:nodetypes="csssc"
     inkscape:connector-curvature="0"
     id="path415"
     d="m 65.472147,242.88183 c 0,0 -9.794091,14.3441 -16.468278,13.98674 -4.478526,-0.23974 -5.558326,-11.91747 -9.408803,-9.61785 -6.832028,4.08037 -0.612049,20.86319 7.108849,22.79019 7.793933,1.94521 12.9632,-8.36335 12.9632,-8.36335"
     style="opacity:1;fill:none;fill-opacity:1;fill-rule:nonzero;stroke:#8b4513;stroke-width:1.04375541;stroke-linecap:round;stroke-linejoin:round;stroke-miterlimit:4;stroke-dasharray:none;stroke-dashoffset:0;stroke-opacity:1" />
  <path
     inkscape:export-ydpi="96"
     inkscape:export-xdpi="96"
     sodipodi:nodetypes="csc"
     inkscape:connector-curvature="0"
     id="path417"
     d="m 124.5877,256.57591 c 0,0 12.78724,18.62007 6.6907,22.99919 -2.24504,1.61259 -7.21343,-6.27249 -7.21343,-6.27249"
     style="opacity:1;fill:none;fill-opacity:1;fill-rule:nonzero;stroke:#8b4513;stroke-width:1.04375541;stroke-linecap:round;stroke-linejoin:round;stroke-miterlimit:4;stroke-dasharray:none;stroke-dashoffset:0;stroke-opacity:1" />
  <path
     inkscape:export-ydpi="96"
     inkscape:export-xdpi="96"
     sodipodi:nodetypes="cc"
     inkscape:connector-curvature="0"
     id="path419"
     d="m 103.12011,332.45981 c 1.77133,2.99908 5.93492,0.68943 8.51827,0.84444"
     style="opacity:1;fill:none;fill-opacity:1;fill-rule:nonzero;stroke:#8b4513;stroke-width:1.04375541;stroke-linecap:round;stroke-linejoin:round;stroke-miterlimit:4;stroke-dasharray:none;stroke-dashoffset:0;stroke-opacity:1" />
  <path
     inkscape:export-ydpi="96"
     inkscape:export-xdpi="96"
     sodipodi:nodetypes="cc"
     inkscape:connector-curvature="0"
     id="path421"
     d="m 54.494704,333.13231 c 2.944006,1.43235 3.602572,2.24863 7.396302,1.46492"
     style="opacity:1;fill:none;fill-opacity:1;fill-rule:nonzero;stroke:#8b4513;stroke-width:1.04375541;stroke-linecap:round;stroke-linejoin:round;stroke-miterlimit:4;stroke-dasharray:none;stroke-dashoffset:0;stroke-opacity:1;paint-order:normal" />
  <path
     inkscape:export-ydpi="96"
     inkscape:export-xdpi="96"
     inkscape:connector-curvature="0"
     id="path423"
     d="m 39.60701,263.25786 6.306557,-8.40321"
     style="opacity:1;fill:#b22222;fill-opacity:1;fill-rule:nonzero;stroke:#8b4513;stroke-width:1.04375541;stroke-linecap:round;stroke-linejoin:round;stroke-miterlimit:4;stroke-dasharray:none;stroke-dashoffset:0;stroke-opacity:1;paint-order:normal" />
  <path
     inkscape:export-ydpi="96"
     inkscape:export-xdpi="96"
     inkscape:connector-curvature="0"
     id="path425"
     d="m 130.50942,267.4388 -3.71384,9.30609"
     style="opacity:1;fill:none;fill-opacity:1;fill-rule:nonzero;stroke:#8b4513;stroke-width:1.04375541;stroke-linecap:round;stroke-linejoin:round;stroke-miterlimit:4;stroke-dasharray:none;stroke-dashoffset:0;stroke-opacity:1;paint-order:normal" />
  <path
     inkscape:export-ydpi="96"
     inkscape:export-xdpi="96"
     sodipodi:nodetypes="ccscc"
     inkscape:connector-curvature="0"
     id="path443"
     d="m 163.54027,194.42223 c 0,0 0.18527,-2.39307 2.41945,-2.39307 2.23417,0 4.04529,2.68546 4.04529,5.99824 0,3.31272 -1.81112,5.99825 -4.04529,5.99825 -2.23418,0 -3.26775,-3.73617 -3.26775,-3.73617"
     style="opacity:1;fill:none;fill-opacity:1;fill-rule:nonzero;stroke:#8b4513;stroke-width:1.04375541;stroke-linecap:round;stroke-linejoin:round;stroke-miterlimit:4;stroke-dasharray:none;stroke-dashoffset:0;stroke-opacity:1;paint-order:normal" />
  <path
     inkscape:export-ydpi="96"
     inkscape:export-xdpi="96"
     sodipodi:nodetypes="csc"
     inkscape:connector-curvature="0"
     id="path445"
     d="m 17.871971,203.45363 c 13.787779,25.88398 54.309909,45.7545 72.419345,45.7545 18.326364,0 59.284134,-19.75213 72.909094,-46.14532"
     style="display:inline;opacity:1;fill:none;fill-opacity:1;fill-rule:nonzero;stroke:#8b4513;stroke-width:1.04368985;stroke-linecap:round;stroke-linejoin:round;stroke-miterlimit:4;stroke-dasharray:none;stroke-dashoffset:0;stroke-opacity:1" />
  <path
     inkscape:export-ydpi="96"
     inkscape:export-xdpi="96"
     sodipodi:nodetypes="csc"
     inkscape:connector-curvature="0"
     id="path449"
     d="m 165.05182,199.14744 c -0.98219,-0.2564 -1.21376,-0.94808 -0.95734,-1.93026 0.25637,-0.98214 1.26039,-1.57052 2.24252,-1.31412"
     style="display:inline;opacity:1;fill:none;fill-opacity:1;fill-rule:nonzero;stroke:#8b4513;stroke-width:1.04375541;stroke-linecap:round;stroke-linejoin:round;stroke-miterlimit:4;stroke-dasharray:none;stroke-dashoffset:0;stroke-opacity:1;paint-order:normal" />
  <path
     inkscape:export-ydpi="96"
     inkscape:export-xdpi="96"
     sodipodi:nodetypes="csc"
     inkscape:connector-curvature="0"
     id="path451"
     d="m 107.12923,315.62903 c 1.52097,5.23786 -9.01838,22.03245 -2.50907,24.37136 6.09781,2.19105 14.28308,-24.90713 13.65584,-26.89345"
     style="display:inline;opacity:1;fill:none;fill-opacity:1;fill-rule:nonzero;stroke:#8b4513;stroke-width:1.04375541;stroke-linecap:round;stroke-linejoin:round;stroke-miterlimit:4;stroke-dasharray:none;stroke-dashoffset:0;stroke-opacity:1" />
  <path
     inkscape:export-ydpi="96"
     inkscape:export-xdpi="96"
     sodipodi:nodetypes="ccc"
     inkscape:connector-curvature="0"
     id="path455"
     d="M 88.02125,151.27268 C 79.843687,177.48869 32.617027,207.75506 5.2834295,202.95642 26.743303,198.32576 44.958748,189.50454 52.468144,166.85459"
     style="display:inline;opacity:1;fill:none;fill-opacity:1;fill-rule:nonzero;stroke:#8b4513;stroke-width:0.81011146;stroke-linecap:round;stroke-linejoin:round;stroke-miterlimit:4;stroke-dasharray:none;stroke-dashoffset:0;stroke-opacity:1;paint-order:normal" />
  <path
     inkscape:export-ydpi="96"
     inkscape:export-xdpi="96"
     sodipodi:nodetypes="cc"
     inkscape:connector-curvature="0"
     id="path457"
     d="m 55.540674,187.70367 c 28.087485,1.04456 38.236061,-27.17837 48.062506,-43.45384"
     style="opacity:1;fill:none;fill-opacity:1;fill-rule:nonzero;stroke:#8b4513;stroke-width:0.81011146;stroke-linecap:round;stroke-linejoin:round;stroke-miterlimit:4;stroke-dasharray:none;stroke-dashoffset:0;stroke-opacity:1;paint-order:normal" />
  <path
     inkscape:export-ydpi="96"
     inkscape:export-xdpi="96"
     sodipodi:nodetypes="ccccsssccsc"
     inkscape:connector-curvature="0"
     id="path459"
     d="m 20.956273,208.4485 c 1.947411,6.47139 5.825147,12.21889 9.345999,18.10024 -0.863897,-1.07989 -9.637279,-11.12389 -16.524397,-22.84303 m -1.629444,-2.48293 C 8.3594449,194.77539 6.2297331,189.27594 5.9418246,184.41173 4.6688093,162.90306 7.9700997,148.69857 22.840536,135.69075 39.23538,121.34952 76.896025,115.82569 98.555515,118.13367 c 9.967085,1.06204 17.910515,2.14264 27.478355,4.73156 m 4.15118,1.24147 c 19.36296,5.23933 34.14202,13.61307 40.35457,29.14113 9.49573,23.73431 -2.78444,33.13133 -0.82458,42.58058"
     style="opacity:1;fill:none;fill-opacity:1;fill-rule:nonzero;stroke:#8b4513;stroke-width:0.81011146;stroke-linecap:round;stroke-linejoin:round;stroke-miterlimit:4;stroke-dasharray:none;stroke-dashoffset:0;stroke-opacity:1;paint-order:normal" />
  <path
     inkscape:export-ydpi="96"
     inkscape:export-xdpi="96"
     sodipodi:nodetypes="ccc"
     inkscape:connector-curvature="0"
     id="path461"
     d="m 125.66235,125.27567 c 1.49086,-5.46726 5.57399,-9.96239 9.31108,-14.58735 -2.50505,5.4212 -5.95979,10.70024 -4.65556,15.82881"
     style="opacity:1;fill:none;fill-opacity:1;fill-rule:nonzero;stroke:#8b4513;stroke-width:0.81011146;stroke-linecap:round;stroke-linejoin:round;stroke-miterlimit:4;stroke-dasharray:none;stroke-dashoffset:0;stroke-opacity:1;paint-order:normal" />
  <path
     inkscape:export-ydpi="96"
     inkscape:export-xdpi="96"
     sodipodi:nodetypes="cc"
     inkscape:connector-curvature="0"
     id="path463"
     d="m 80.193372,179.74536 c 17.777067,-9.68835 32.673218,-28.63675 55.711108,-21.41545"
     style="opacity:1;fill:none;fill-opacity:1;fill-rule:nonzero;stroke:#8b4513;stroke-width:0.81011146;stroke-linecap:round;stroke-linejoin:round;stroke-miterlimit:4;stroke-dasharray:none;stroke-dashoffset:0;stroke-opacity:1;paint-order:normal" />
  <path
     inkscape:export-ydpi="96"
     inkscape:export-xdpi="96"
     sodipodi:nodetypes="cc"
     inkscape:connector-curvature="0"
     id="path465"
     d="m 133.57674,152.4329 c 4.21017,12.20456 19.98554,27.22144 29.81421,40.72253"
     style="opacity:1;fill:none;fill-opacity:1;fill-rule:nonzero;stroke:#8b4513;stroke-width:0.81011146;stroke-linecap:round;stroke-linejoin:round;stroke-miterlimit:4;stroke-dasharray:none;stroke-dashoffset:0;stroke-opacity:1;paint-order:normal" />
  <path
     inkscape:export-ydpi="96"
     inkscape:export-xdpi="96"
     sodipodi:nodetypes="cc"
     inkscape:connector-curvature="0"
     id="path467"
     d="m 156.69921,156.93324 c -3.48987,8.77335 4.3607,25.3678 6.82809,36.00274"
     style="opacity:1;fill:none;fill-opacity:1;fill-rule:nonzero;stroke:#8b4513;stroke-width:0.81011146;stroke-linecap:round;stroke-linejoin:round;stroke-miterlimit:4;stroke-dasharray:none;stroke-dashoffset:0;stroke-opacity:1;paint-order:normal" />
  <path
     inkscape:export-ydpi="96"
     inkscape:export-xdpi="96"
     sodipodi:nodetypes="cc"
     inkscape:connector-curvature="0"
     id="path469"
     d="m 165.38955,169.50318 c -2.4455,4.05328 -2.06444,13.40632 -1.24146,23.58801"
     style="opacity:1;fill:none;fill-opacity:1;fill-rule:nonzero;stroke:#8b4513;stroke-width:0.81011146;stroke-linecap:round;stroke-linejoin:round;stroke-miterlimit:4;stroke-dasharray:none;stroke-dashoffset:0;stroke-opacity:1;paint-order:normal" />
  <path
     inkscape:export-ydpi="96"
     inkscape:export-xdpi="96"
     sodipodi:nodetypes="ccc"
     inkscape:connector-curvature="0"
     id="path471"
     d="m 163.40712,203.50505 3.62114,11.02807 c 0.54433,-4.00689 0.20687,-7.52392 1.92026,-12.18023"
     style="opacity:1;fill:none;fill-opacity:1;fill-rule:nonzero;stroke:#8b4513;stroke-width:0.80995834;stroke-linecap:round;stroke-linejoin:round;stroke-miterlimit:4;stroke-dasharray:none;stroke-dashoffset:0;stroke-opacity:1;paint-order:normal" />
  <path
     id="path1435"
     d="m 57.22723,187.7014 c -0.806521,0.033 -1.644016,0.0606 -2.545059,0.0895 0,0 -4.336286,2.84091 -9.072148,5.56733 -0.220132,1.32726 -0.222532,2.67726 -0.06057,3.90941 0.160126,1.33837 0.653766,2.85044 1.483717,4.16575 0.490554,1.33152 1.779456,0.16612 5.143494,-0.26726 3.654118,-0.47077 5.145608,1.42901 5.862694,0.14351 1.176092,-1.94159 1.593669,-4.34802 1.502576,-6.39125 -0.06235,-1.79771 -1.140719,-5.39819 -2.314698,-7.21697 z"
     style="display:inline;opacity:1;fill:#00ad00;fill-opacity:1;fill-rule:nonzero;stroke:none;stroke-width:0.90813279;stroke-linecap:round;stroke-linejoin:miter;stroke-miterlimit:4;stroke-dasharray:none;stroke-dashoffset:0;stroke-opacity:1;paint-order:normal"
     inkscape:connector-curvature="0" />
  <path
     id="path1437"
     d="m 59.319796,187.59183 c -1.417769,0.0971 -2.928175,0.14438 -4.637625,0.19905 0,0 -0.173957,0.11271 -0.25162,0.16332 4.630711,0.62808 8.557702,3.73758 9.63293,10.3677 0.281222,-5.1263 -1.707621,-8.67522 -4.743685,-10.73007 z m -23.025884,10.35 c -4.57e-4,1.4e-4 -0.111437,0.0323 -0.11338,0.0328 -0.02115,0.11509 -0.04172,0.23066 -0.06086,0.34728 0.05543,-0.1278 0.114866,-0.25382 0.174242,-0.38007 z"
     style="display:inline;opacity:1;fill:#8b4513;fill-opacity:1;fill-rule:nonzero;stroke:none;stroke-width:1.60270405;stroke-linecap:round;stroke-linejoin:miter;stroke-miterlimit:4;stroke-dasharray:none;stroke-dashoffset:0;stroke-opacity:1;paint-order:normal"
     inkscape:connector-curvature="0" />
  <path
     inkscape:connector-curvature="0"
     id="path1445"
     d="m 131.98404,186.53495 c -2.01822,0.0724 -2.67039,0.20743 -4.0745,0.69832 -1.23107,1.73018 -2.40064,5.57098 -2.46563,7.44569 -0.0911,2.04323 0.3262,4.44962 1.50235,6.39121 0.71709,1.28549 2.20863,-0.61429 5.8627,-0.14353 3.36409,0.4334 4.65288,1.59889 5.14349,0.26735 0.82989,-1.3153 1.32376,-2.8275 1.48384,-4.16588 0.34539,-2.62771 -0.0441,-5.79158 -1.74026,-8.1273 -0.87915,-0.313 -1.18289,-1.86427 -2.31104,-2.06355 -0.73863,-0.0985 -2.62838,-0.30127 -3.40095,-0.30231 z"
     style="display:inline;opacity:1;fill:#00ad00;fill-opacity:1;fill-rule:nonzero;stroke:none;stroke-width:0.90813279;stroke-linecap:round;stroke-linejoin:miter;stroke-miterlimit:4;stroke-dasharray:none;stroke-dashoffset:0;stroke-opacity:1;paint-order:normal"
     sodipodi:nodetypes="ccccsccccc" />
  <path
     style="opacity:1;vector-effect:none;fill:#8b4513;fill-opacity:1;stroke:none;stroke-width:0.43666145;stroke-linecap:round;stroke-linejoin:round;stroke-miterlimit:4;stroke-dasharray:none;stroke-dashoffset:0;stroke-opacity:1;paint-order:normal"
     d="m 134.93318,187.89185 c 8.48181,-0.5051 10.40385,-1.34583 14.14341,-3.53809 -1.19461,2.01168 -5.94704,4.53957 -8.25328,4.66153 3.6056,1.08887 8.98819,-2.79885 11.75825,-4.21649 -3.14522,2.89492 -4.09205,5.27664 -9.76278,6.5221 z"
     id="path1447"
     inkscape:connector-curvature="0"
     sodipodi:nodetypes="cccccc" />
  <path
     sodipodi:nodetypes="ccc"
     inkscape:connector-curvature="0"
     id="path1449"
     d="m 119.41378,198.08265 c 2.68153,-16.53435 23.09446,-11.19079 27.9441,0 -2.70673,-16.59166 -28.91721,-17.73833 -27.9441,0 z"
     style="display:inline;opacity:1;fill:#8b4513;fill-opacity:1;fill-rule:nonzero;stroke:none;stroke-width:1.60270405;stroke-linecap:round;stroke-linejoin:miter;stroke-miterlimit:4;stroke-dasharray:none;stroke-dashoffset:0;stroke-opacity:1;paint-order:normal" />
  <path
     style="display:inline;opacity:1;fill:#550000;fill-opacity:1;fill-rule:nonzero;stroke:none;stroke-width:0.44963533;stroke-linecap:round;stroke-linejoin:miter;stroke-miterlimit:4;stroke-dasharray:none;stroke-dashoffset:0;stroke-opacity:1;paint-order:normal"
     d="m 62.564922,215.66094 a 30.958915,20.900078 0 0 0 -0.06643,0.89317 30.958915,20.900078 0 0 0 30.958976,20.90003 30.958915,20.900078 0 0 0 30.958992,-20.90003 30.958915,20.900078 0 0 0 -0.047,-0.89317 z"
     id="path1557"
     inkscape:connector-curvature="0"
     inkscape:export-xdpi="96"
     inkscape:export-ydpi="96" />
  <path
     style="display:inline;opacity:1;fill:#fffafa;fill-opacity:1;fill-rule:nonzero;stroke:none;stroke-width:0.62197614;stroke-linecap:round;stroke-linejoin:miter;stroke-miterlimit:4;stroke-dasharray:none;stroke-dashoffset:0;stroke-opacity:1;paint-order:normal"
     d="m 62.946501,219.30753 c 19.981637,-1.72688 40.941519,-1.94057 60.923149,0.17434 0.79282,-2.12425 0.18072,-1.69663 0.44489,-3.82089 -20.5349,-1.73102 -41.155773,-1.91502 -61.893247,0 0.0057,3.1019 -0.09173,0.97309 0.525208,3.64655 z"
     id="path1559"
     inkscape:connector-curvature="0"
     sodipodi:nodetypes="ccccc"
     inkscape:export-xdpi="96"
     inkscape:export-ydpi="96" />
  <path
     style="display:inline;opacity:1;fill:#f08080;fill-opacity:1;fill-rule:nonzero;stroke:none;stroke-width:0.35364279;stroke-linecap:round;stroke-linejoin:miter;stroke-miterlimit:4;stroke-dasharray:none;stroke-dashoffset:0;stroke-opacity:1;paint-order:normal"
     clip-path="none"
     d="m 93.457418,230.1378 a 24.349502,16.438124 0 0 0 -16.214531,4.20163 30.958915,20.900078 0 0 0 16.214531,3.11471 30.958915,20.900078 0 0 0 16.206932,-3.12335 24.349502,16.438124 0 0 0 -16.206932,-4.19299 z"
     id="path1561"
     inkscape:connector-curvature="0"
     inkscape:export-xdpi="96"
     inkscape:export-ydpi="96" />
  <path
     inkscape:connector-curvature="0"
     id="path1563"
     d="m 62.564922,215.66094 c -0.03155,0.29736 -0.05372,0.59516 -0.06643,0.89317 4e-5,11.54279 13.860842,20.90005 30.958976,20.90003 17.098142,3e-5 30.958952,-9.35723 30.958992,-20.90003 -0.006,-0.29792 -0.0219,-0.59571 -0.047,-0.89317 -18.18858,-1.72354 -37.966954,-2.3115 -61.804565,0 z"
     style="opacity:1;fill:none;fill-opacity:1;fill-rule:nonzero;stroke:#8b4513;stroke-width:0.93252194;stroke-linecap:round;stroke-linejoin:round;stroke-miterlimit:4;stroke-dasharray:none;stroke-dashoffset:0;stroke-opacity:1;paint-order:normal"
     inkscape:export-xdpi="96"
     inkscape:export-ydpi="96"
     sodipodi:nodetypes="cccccc" />
  <path
     style="opacity:1;fill:none;fill-opacity:1;fill-rule:nonzero;stroke:#8b4513;stroke-width:0.93252194;stroke-linecap:round;stroke-linejoin:round;stroke-miterlimit:4;stroke-dasharray:none;stroke-dashoffset:0;stroke-opacity:1;paint-order:normal"
     d="m 63.302935,219.28646 c 20.055556,-1.62571 40.842515,-1.53185 60.492735,0.085"
     id="path1565"
     inkscape:connector-curvature="0"
     sodipodi:nodetypes="cc"
     inkscape:export-xdpi="96"
     inkscape:export-ydpi="96" />
  <path
     style="display:inline;opacity:1;fill:none;fill-opacity:1;fill-rule:nonzero;stroke:#8b4513;stroke-width:0.93252194;stroke-linecap:round;stroke-linejoin:round;stroke-miterlimit:4;stroke-dasharray:none;stroke-dashoffset:0;stroke-opacity:1;paint-order:normal"
     clip-path="none"
     d="m 109.66435,234.33079 c -4.45601,-2.69415 -10.22512,-4.1867 -16.206932,-4.19299 -5.986148,0.008 -11.758464,1.50318 -16.214531,4.20163"
     id="path1567"
     inkscape:connector-curvature="0"
     inkscape:export-xdpi="96"
     inkscape:export-ydpi="96"
     sodipodi:nodetypes="ccc" />
</svg>
